<svg id="Layer_1" data-name="Layer 1" xmlns="http://www.w3.org/2000/svg" viewBox="0 0 2708.36 4057.3"><defs><style>.cls-1{fill:#001f0b;fill-rule:evenodd;}</style></defs><path class="cls-1" d="M1085.48,710.07l-4.41,218.71-511.55-3.11L569.23,1155l-244.66,2.25-.64,688.36-.24,431.86,7.4,81.59,2,172.57,243.2.54,0,231.44,377.22.59.81,462.13,244.33-.07,1.55-231,212.43.12L1423,3250.73c436.56-3.05,142.51,1.35,539.26-2.15l-8.59-253.33h215.7l.57,228.93,251.14,2.3,2.12-460.19,362.86-2.41.6-231,245.31-1,.08-172.85-7.11-81.66.25-776-.73-344-244.29-.52-.5-231.26-543.39-.19-2.05-231L1887,701V466.6L1416.86,462V703.46l-331.38,6.61ZM2526.73,3595.61l-244.9.28-1.12,230.66-241.58,4.64-3.49-235-248.72-.28,3.15,231-236.89-.05L1551.26,3598l-244.2-.18-.82,229.07H1060.72l-3.31-226.5-240.17-4.58-2.11,694.32,559.95.59-4,228.53,556.45-2.22,2.27-230.86,596.87,3.79,0-694.39Zm-1715-1746.28L571,1852.27l-1.88,20.58.31,428.05,720.78-6.46-2-436.14h231.52V1612.38H811.68v236.95Zm1250.38,453.75,711.11-2.22,6.4-.07-.09-448.62-245.31-.28L2534.1,1620H2062.67v.54H1824.34v245.93h238.13l-.41,436.66Zm-503.72,227.66L1313,2532l.36,231.72,736.19-.12.21-202.4c0-41-12.42-29.27-106.93-29.27-34.93,0-107.81,3.85-137.92-2.16l-.82-224.13-245.53,2-.18,223ZM578.43,3592.46l240.93,5.63-.21-718.17-234.44,3.78-6.28,708.76Zm1948.3,3.15,257.32-8-8.18-739.43-254.4-.71,5.26,748.11Z" transform="translate(-323.69 -461.99)"/></svg>