<svg xmlns="http://www.w3.org/2000/svg" xmlns:xlink="http://www.w3.org/1999/xlink" viewBox="0 0 1920 1080"><defs><style>.cls-1{isolation:isolate;}.cls-2{fill:url(#linear-gradient);}.cls-3{mix-blend-mode:soft-light;}.cls-4{fill:#639a3f;}.cls-5{fill:#015f54;}.cls-6{fill:#0086a6;}.cls-7{fill:#007459;}.cls-8{fill:#4d9958;}.cls-9{fill:#0c5347;}.cls-10{fill:#014c59;}.cls-11{fill:#006f8a;}.cls-12{opacity:0.32;}</style><linearGradient id="linear-gradient" x1="631.85" y1="1635.05" x2="1370.78" y2="-631.87" gradientUnits="userSpaceOnUse"><stop offset="0.05" stop-color="#639a3f"/><stop offset="1" stop-color="#0c5347"/></linearGradient></defs><g class="cls-1"><g id="Layer_1" data-name="Layer 1"><rect class="cls-2" x="-237.12" y="-125.15" width="2452.15" height="1329.38"/><g class="cls-3"><path class="cls-4" d="M666-174.93a252.21,252.21,0,0,0,7.38,63.58A18.4,18.4,0,0,1,695.68-98,18.39,18.39,0,0,1,684.57-76.4C713.52-4,766.59,38.42,771.3,42.08l0,.24.19-.1.17.13,0-.24c7.28-4,118.81-67.61,137.82-198,0,0,17.21-104.29-50.35-141.29a12.27,12.27,0,0,1-.57,1.46,18.55,18.55,0,0,1-25,8,18.53,18.53,0,0,1-9.56-20.8,151.39,151.39,0,0,0-24.9-1.4C664.85-334,666-174.93,666-174.93ZM820.73-12.67a6.16,6.16,0,0,1-2.64-8.3,6.15,6.15,0,0,1,8.3-2.63A6.16,6.16,0,0,1,829-15.32a6.16,6.16,0,0,1-8.23,2.64Zm62.4-120.75a10.77,10.77,0,0,1,4.62,14.51,10.76,10.76,0,0,1-14.51,4.63,10.77,10.77,0,0,1-4.63-14.5,10.79,10.79,0,0,1,14.54-4.67l.05,0ZM714.71-249.9a6.17,6.17,0,0,1,2.8,8.25,6.15,6.15,0,0,1-8.24,2.8,6.16,6.16,0,0,1-2.8-8.25l.09-.17a6.16,6.16,0,0,1,8.22-2.63Z"/><polygon class="cls-5" points="770.3 19.27 795.56 -304.92 804.65 -304.17 778.83 27.08 770.3 19.27"/></g><g class="cls-3"><path class="cls-6" d="M53-64.71a251.5,251.5,0,0,0,50.32,39.13,18.3,18.3,0,0,1,25-6.75A18.29,18.29,0,0,1,136-9.14c71.63,30,138.77,21.91,144.65,21.1l.15.19v-.22H281l-.17-.17c2.22-8,34.92-131.55-44.38-236,0,0-62.06-85-135.47-62.85a15.39,15.39,0,0,1,.64,1.44,18.46,18.46,0,0,1-11.79,23.3,18.48,18.48,0,0,1-21.37-7.7A149.15,149.15,0,0,0,50-253.43C-60.7-174.88,53-64.71,53-64.71Zm223.26,3.3a6.13,6.13,0,0,1-7.74-3.91,6.13,6.13,0,0,1,3.91-7.74,6.13,6.13,0,0,1,7.74,3.9v0a6.11,6.11,0,0,1-3.88,7.72ZM234.1-190a10.72,10.72,0,0,1,13.53,6.84,10.72,10.72,0,0,1-6.84,13.53,10.71,10.71,0,0,1-13.53-6.84v0A10.71,10.71,0,0,1,234.1-190ZM33.84-151.73a6.13,6.13,0,0,1,7.74,3.9,6.14,6.14,0,0,1-3.91,7.75A6.13,6.13,0,0,1,29.93-144v0a6.1,6.1,0,0,1,3.88-7.71Z"/></g><g class="cls-3"><path class="cls-7" d="M388.16-11.53a204.74,204.74,0,0,0,33,40.06,14.92,14.92,0,0,1,23,18.92C495.8,84.11,550.64,89.68,555.48,90.11v.17l.08-.16h.17V90c3.22-6,51.32-98.42,6.92-195.69,0,0-34.14-78.71-96.5-74.21,0,.41.21.8.24,1.23a15.07,15.07,0,0,1-13.54,16.47h0a15.06,15.06,0,0,1-15.6-10,123.3,123.3,0,0,0-17.64,9.94C317.41-119.53,388.16-11.53,388.16-11.53ZM565.16,31a5,5,0,1,1,4.48-5.45.41.41,0,0,1,0,.11A5,5,0,0,1,565.16,31ZM554.61-78.8a8.74,8.74,0,0,1,9.53,7.86,8.75,8.75,0,0,1-7.86,9.54,8.75,8.75,0,0,1-9.55-7.85A8.75,8.75,0,0,1,554.61-78.8ZM388.45-84.17a5,5,0,0,1,5.46,4.51,5,5,0,0,1-4.51,5.44A5,5,0,0,1,384-78.71a5,5,0,0,1,4.49-5.44Z"/><polygon class="cls-5" points="475.27 -58.68 447.61 2.19 440.88 -0.87 470.85 -66.88 475.27 -58.68"/><polygon class="cls-5" points="506.68 -4.53 484.31 42.86 477.62 39.69 502.32 -12.62 506.68 -4.53"/><polygon class="cls-5" points="559.13 2.51 506.46 -4.94 502.45 -12.34 502.53 -12.95 560.16 -4.82 559.13 2.51"/><polygon class="cls-5" points="544.76 75.04 419.36 -157.21 425.89 -160.72 554.01 76.63 544.76 75.04"/></g><path class="cls-8" d="M1078.32,131.23a126.43,126.43,0,0,0,29.48,13.44,9.15,9.15,0,0,1,4-5.21,9.29,9.29,0,0,1,14.08,9.51,153.11,153.11,0,0,0,74-6.53l.13.06h0c.17-4.2,1.8-69.15-49.67-111.51,0,0-40.67-34.74-74.36-15.16.21.09.35.39.49.63a9.38,9.38,0,0,1-14.57,11.61,76.31,76.31,0,0,0-7.14,10.4C1009.15,90.09,1078.32,131.23,1078.32,131.23Zm110.79-24.57a3.13,3.13,0,1,1,.16-.1ZM1153.16,48a5.56,5.56,0,1,1-1.69,7.69l-.12-.2A5.56,5.56,0,0,1,1153.16,48Zm-94.53,42.47a3.12,3.12,0,0,1,3.26,5.31,3.16,3.16,0,0,1-4.29-1,3.1,3.1,0,0,1,1-4.26Z"/><polygon class="cls-8" points="1058.77 43.23 1011.12 9.03 1013.82 5.28 1064.38 41.59 1058.77 43.23"/><polygon class="cls-5" points="1080.34 56.73 1082.77 115.33 1078.17 115.53 1075.6 53.32 1080.34 56.73"/><polygon class="cls-5" points="1114.21 81 1115.39 122.67 1110.76 122.8 1109.52 77.61 1114.21 81"/><polygon class="cls-5" points="1145.21 103.22 1145.66 135.88 1141.04 135.93 1140.56 99.88 1145.21 103.22"/><polygon class="cls-5" points="1136.86 39.85 1080.08 56.55 1075.81 53.47 1075.69 53.03 1135.57 35.45 1136.86 39.85"/><polygon class="cls-5" points="1109.26 77.44 1152.92 63.98 1154.27 68.37 1113.95 80.83 1109.26 77.44"/><polygon class="cls-5" points="1176.53 92.8 1144.98 103.06 1140.72 99.98 1140.58 99.62 1175.09 88.42 1176.53 92.8"/><polygon class="cls-5" points="1189.73 136.89 1055.95 41.11 1058.65 37.36 1195.34 135.25 1189.73 136.89"/><g class="cls-3"><path class="cls-9" d="M1077.55-136.06a259.36,259.36,0,0,0,16,63.77,18.81,18.81,0,0,1,13.36-.24,19,19,0,0,1,11.38,24.29,18.77,18.77,0,0,1-8.69,10.07A311.64,311.64,0,0,0,1213.76,71l0,.26.15-.16.16.16,0-.26c6.82-5,112.1-84.78,114-220,0,0,3.64-108.55-70.11-137.22-.14.54-.21,1-.39,1.58a19.11,19.11,0,0,1-24.44,11.46,19,19,0,0,1-12.43-19.87,153.91,153.91,0,0,0-25.55,1.83C1055.19-297.91,1077.55-136.06,1077.55-136.06ZM1256.9,8.56a6.33,6.33,0,0,1-3.78-8,6.35,6.35,0,0,1,8.07-3.75A6.32,6.32,0,0,1,1265,4.83,6.32,6.32,0,0,1,1256.9,8.56Zm47.47-131.31a11.14,11.14,0,0,1,6.67,14.22,11.12,11.12,0,0,1-14.17,6.63,11.13,11.13,0,0,1-6.64-14.17,11.14,11.14,0,0,1,14.14-6.68ZM1117.27-219a6.34,6.34,0,0,1,3.76,8.07,6.35,6.35,0,0,1-8.07,3.76,6.32,6.32,0,0,1-3.76-8.07,6.32,6.32,0,0,1,8.07-3.76Z"/><polygon class="cls-5" points="1209.71 47.83 1192.21 -285.76 1201.59 -286.22 1219.45 54.65 1209.71 47.83"/></g><g class="cls-3"><path class="cls-9" d="M-96.21-1.78A259.36,259.36,0,0,0-80.2,62a18.81,18.81,0,0,1,13.36-.23A19,19,0,0,1-55.46,86a18.79,18.79,0,0,1-8.69,10.08A311.78,311.78,0,0,0,40,205.24l0,.25.16-.16.16.16,0-.26c6.82-5,112.1-84.77,114-220,0,0,3.64-108.54-70.11-137.21-.14.53-.21,1-.39,1.57a19.11,19.11,0,0,1-24.44,11.47,19,19,0,0,1-12.43-19.88A156.09,156.09,0,0,0,21.37-157C-118.57-163.63-96.21-1.78-96.21-1.78ZM83.13,142.85a6.28,6.28,0,1,1,8.05-3.74A6.34,6.34,0,0,1,83.13,142.85ZM130.61,11.54a11.08,11.08,0,1,1-14.14,6.67,11.12,11.12,0,0,1,14.14-6.67ZM-56.49-84.67a6.34,6.34,0,0,1,3.76,8.07,6.35,6.35,0,0,1-8.07,3.75,6.31,6.31,0,0,1-3.76-8.07,6.31,6.31,0,0,1,8.07-3.75Z"/><polygon class="cls-5" points="28.97 -8.49 -35.65 46.13 -41.7 39 28.37 -20.25 28.97 -8.49"/><polygon class="cls-5" points="33 68.84 -18.28 110.9 -24.21 103.65 32.4 57.23 33 68.84"/><polygon class="cls-5" points="28.34 -20.86 105.02 31.35 99.72 39.1 28.93 -9.12 28.34 -20.86"/><polygon class="cls-5" points="89.18 105.32 32.96 68.25 32.42 57.61 32.83 56.96 94.32 97.52 89.18 105.32"/><polygon class="cls-5" points="35.95 182.12 18.45 -151.48 27.83 -151.93 45.69 188.94 35.95 182.12"/></g><g class="cls-3"><path class="cls-7" d="M883.54-228.35a361.31,361.31,0,0,0-58,70.91,26.28,26.28,0,0,1,11.39,14.74,26.45,26.45,0,0,1-17.7,33,26.4,26.4,0,0,1-18.53-1.35C755-9.14,764.18,87.72,765.09,96.25l-.3.07.3.08.08.3.29-.08c11.4,3.53,188,55,341.14-55.29,0,0,124.54-86.15,95.31-192.55-.7.16-1.31.62-2.05.83a26.6,26.6,0,0,1-33.16-17.78v0a26.59,26.59,0,0,1,11.9-30.45,216.88,216.88,0,0,0-23.27-27.1C1046.18-388,883.54-228.35,883.54-228.35Zm-12.81,321a8.82,8.82,0,1,1,11,5.9l-.19,0A8.83,8.83,0,0,1,870.73,92.68Zm186.48-56A15.43,15.43,0,1,1,1038,26.31,15.43,15.43,0,0,1,1057.21,36.67Zm-47.82-289.49a8.87,8.87,0,0,1-5.93,11,8.84,8.84,0,0,1-11-5.93,8.82,8.82,0,0,1,5.91-11,8.84,8.84,0,0,1,11,5.91Z"/><polygon class="cls-5" points="1008.44 -104.76 1013.7 24.49 1000.65 25.02 995.78 -94.33 1008.44 -104.76"/><polygon class="cls-5" points="918 72.46 912.78 -21.29 924.23 -30.77 925.31 -30.84 931.04 71.72 918 72.46"/><polygon class="cls-5" points="787.49 72.5 1146.46 -224.42 1154.77 -214.32 787.92 89.07 787.49 72.5"/></g><g class="cls-3"><path class="cls-4" d="M1116.13,207.46a142.93,142.93,0,0,0,4.16,35.91,10.39,10.39,0,0,1,6.33,19.74C1143,304,1172.94,328,1175.6,330l0,.14.11-.06.09.07V330c4.11-2.28,67.1-38.19,77.83-111.81,0,0,9.72-58.9-28.43-79.79a8.26,8.26,0,0,1-.33.82,10.47,10.47,0,0,1-19.49-7.21,86,86,0,0,0-14.07-.79C1115.48,117.64,1116.13,207.46,1116.13,207.46Zm87.39,91.64a3.48,3.48,0,1,1,4.68-1.5,3.47,3.47,0,0,1-4.68,1.5Zm35.24-68.2a6.08,6.08,0,1,1-8.2,2.62,6.09,6.09,0,0,1,8.2-2.62h0Zm-95.12-65.78a3.48,3.48,0,1,1-4.65,1.58l0-.1a3.48,3.48,0,0,1,4.64-1.49Z"/><polygon class="cls-5" points="1188.48 166.38 1133.88 202.53 1131.05 198.24 1188.99 159.86 1188.48 166.38"/><polygon class="cls-5" points="1184.84 212.73 1145.71 237.91 1142.92 233.57 1185.35 206.28 1184.84 212.73"/><polygon class="cls-5" points="1181.52 255.18 1150.57 274.44 1147.84 270.08 1182.01 248.8 1181.52 255.18"/><polygon class="cls-5" points="1237.21 210.62 1188.49 166.02 1188.95 160.15 1189.3 159.78 1240.68 206.83 1237.21 210.62"/><polygon class="cls-5" points="1185.38 205.95 1223.44 239.88 1220.01 243.72 1184.87 212.39 1185.38 205.95"/><polygon class="cls-5" points="1209.53 279.07 1181.54 254.85 1181.98 249 1182.27 248.69 1212.89 275.18 1209.53 279.07"/><polygon class="cls-5" points="1175.04 317.13 1189.3 134.04 1194.44 134.47 1179.85 321.55 1175.04 317.13"/></g><g class="cls-3"><path class="cls-10" d="M192.15,391.47a104.32,104.32,0,0,0-10.89,24,7.56,7.56,0,0,1-3.47,14.69c-5.17,31.66,4.53,57.87,5.41,60.15l-.06.08a.11.11,0,0,0,.08,0l0,.09.06-.08c3.43.12,56.21,1.4,90.58-40.49,0,0,28.2-33.1,12.25-60.48a4.81,4.81,0,0,1-.52.4A7.63,7.63,0,0,1,276.14,378a63.33,63.33,0,0,0-8.46-5.8C225.51,335.19,192.15,391.47,192.15,391.47Zm20.13,90a1.9,1.9,0,1,1,0,.08l0,0Zm47.61-29.29a3.13,3.13,0,1,0,0,.05Zm-34.61-76.71a2.52,2.52,0,1,1-3.48-.84,2.52,2.52,0,0,1,3.48.84Z"/><polygon class="cls-5" points="252.73 393.03 205.09 395.07 204.93 391.32 255.5 389.16 252.73 393.03"/><polygon class="cls-5" points="233.04 420.58 199.18 421.58 199.06 417.83 235.79 416.75 233.04 420.58"/><polygon class="cls-5" points="215.02 445.81 188.47 446.2 188.41 442.46 217.73 442.02 215.02 445.81"/><polygon class="cls-5" points="266.51 438.95 252.88 392.81 255.37 389.32 255.73 389.22 270.1 437.88 266.51 438.95"/><polygon class="cls-5" points="235.93 416.55 246.93 452.02 243.35 453.14 233.19 420.38 235.93 416.55"/><polygon class="cls-5" points="223.51 471.25 215.16 445.61 217.64 442.14 217.93 442.05 227.08 470.08 223.51 471.25"/><polygon class="cls-5" points="187.69 482.03 265.4 373.18 268.45 375.36 189.04 486.6 187.69 482.03"/></g><g class="cls-3"><path class="cls-6" d="M45.63,256.34A252.07,252.07,0,0,0,96,295.47a18.3,18.3,0,0,1,32.63,16.44c71.63,30,138.77,21.91,144.66,21.1l.14.19V333h.22l-.17-.16c2.22-8,34.92-131.56-44.38-236,0,0-62.06-85-135.46-62.85q.34.7.63,1.44A18.46,18.46,0,0,1,61.06,51,147.47,147.47,0,0,0,42.65,67.62C-68.09,146.17,45.63,256.34,45.63,256.34Zm223.27,3.3a6.13,6.13,0,1,1,3.9-7.74h0a6.11,6.11,0,0,1-3.89,7.72ZM226.71,131.08a10.72,10.72,0,1,1-6.84,13.53v0A10.72,10.72,0,0,1,226.71,131.08ZM26.45,169.32a6.13,6.13,0,1,1-3.9,7.74v0a6.1,6.1,0,0,1,3.88-7.71Z"/><polygon class="cls-5" points="83.39 114.61 61.38 227.92 52.48 226.18 75.85 105.92 83.39 114.61"/><polygon class="cls-5" points="137.17 176.46 120.48 256.77 111.59 254.91 129.7 167.86 137.17 176.46"/><polygon class="cls-5" points="186.42 233.08 172.41 295.81 163.55 293.84 179.03 224.6 186.42 233.08"/><polygon class="cls-5" points="199.25 108.01 82.97 114.16 76.14 106.3 76.11 105.41 198.75 98.95 199.25 108.01"/><polygon class="cls-5" points="129.32 167.41 219 161.48 219.6 170.54 136.78 176.01 129.32 167.41"/><polygon class="cls-5" points="251.11 227.38 186.06 232.65 179.27 224.88 179.19 224.12 250.37 218.35 251.11 227.38"/><polygon class="cls-5" points="256.32 317.8 43.77 73.62 50.63 67.66 267.83 317.2 256.32 317.8"/></g><g class="cls-3"><path class="cls-7" d="M887.09,411.23a204.45,204.45,0,0,1-33,40.06,14.92,14.92,0,0,0-23,18.92c-51.61,36.66-106.46,42.23-111.3,42.67v.17l-.08-.16h-.17v-.17c-3.21-5.94-51.32-98.42-6.91-195.68,0,0,34.13-78.72,96.49-74.22,0,.42-.2.8-.24,1.23a15.09,15.09,0,0,0,13.54,16.47h0a15.06,15.06,0,0,0,15.61-10,122.66,122.66,0,0,1,17.63,9.94C957.84,303.24,887.09,411.23,887.09,411.23Zm-177,42.55a5,5,0,1,0-4.49-5.46s0,.08,0,.12A5,5,0,0,0,710.1,453.78ZM720.65,344a8.74,8.74,0,1,0,7.88,9.55A8.74,8.74,0,0,0,720.65,344ZM886.8,338.6a5,5,0,1,0,4.49,5.46,5,5,0,0,0-4.49-5.46Z"/><polygon class="cls-7" points="853.32 270.61 897.93 187.75 891.4 184.24 844.07 272.2 853.32 270.61"/><polygon class="cls-5" points="831.7 305.25 869.49 391.46 876.25 388.48 836.17 296.99 831.7 305.25"/><polygon class="cls-5" points="799.99 364.08 827.64 424.96 834.38 421.89 804.4 355.88 799.99 364.08"/><polygon class="cls-5" points="768.58 418.23 790.95 465.63 797.63 462.46 772.93 410.15 768.58 418.23"/><polygon class="cls-5" points="738.37 320.74 831.96 304.81 835.99 297.36 835.86 296.63 737.13 313.44 738.37 320.74"/><polygon class="cls-5" points="804.63 355.46 732.22 366.8 733.37 374.11 800.23 363.64 804.63 355.46"/><polygon class="cls-5" points="716.12 425.27 768.8 417.83 772.8 410.42 772.72 409.81 715.09 417.95 716.12 425.27"/><polygon class="cls-5" points="730.5 497.81 855.89 265.56 849.37 262.05 721.24 499.39 730.5 497.81"/><path class="cls-4" d="M991.66,92.1a275.43,275.43,0,0,1,61.22,33.54,20.06,20.06,0,0,0,30.72,25.66c61.29,59,82.35,130,84.13,136.25l.22.13-.18.16.06.22-.22-.13c-7.06,5.71-117.08,92.31-256.59,58,0,0-112.44-25.4-122.09-108.85.57,0,1.14,0,1.71,0A20.22,20.22,0,0,0,791.9,197a165.77,165.77,0,0,1,8.8-25.73C831.44,25.68,991.66,92.1,991.66,92.1ZM1092.12,315a27,27,0,1,0,0,.07Zm-147.61,13.5a11.74,11.74,0,1,0,10.63-12.76,11.73,11.73,0,0,0-10.63,12.76v.06Zm-48.58-218a6.71,6.71,0,1,0,6.21-7.18l-.22,0a6.72,6.72,0,0,0-6,7.23Z"/><polygon class="cls-5" points="865.6 191.69 969.95 120.28 964.34 112.09 853.57 187.86 865.6 191.69"/><polygon class="cls-5" points="951.17 218.86 1024.64 167.14 1018.92 159.01 939.26 215.09 951.17 218.86"/><polygon class="cls-5" points="1029.52 243.75 1086.48 202.38 1080.65 194.34 1017.76 240.01 1029.52 243.75"/><polygon class="cls-5" points="909.34 311.03 864.95 191.45 854.11 188.01 853.2 188.37 900.03 314.48 909.34 311.03"/><polygon class="cls-5" points="938.64 214.89 971.69 307.65 981.05 304.3 950.54 218.66 938.64 214.89"/><polygon class="cls-5" points="1051.91 311.23 1028.92 243.55 1018.14 240.11 1017.37 240.39 1042.5 314.42 1051.91 311.23"/><polygon class="cls-5" points="1145.08 277.18 807.15 169.67 804.17 179.16 1149.48 289.01 1145.08 277.18"/><path class="cls-9" d="M663.74,274.93a198.42,198.42,0,0,1-36.61-34.24,14.39,14.39,0,0,0-16.81-23.32c-32.15-52-34.16-105.16-34.26-109.83l-.16-.1.16,0,0-.17.15.1c5.93-2.71,98-43.37,188.94,5.35,0,0,73.74,37.74,65.58,97.52-.4-.1-.78-.25-1.18-.31a14.53,14.53,0,0,0-8,27.57,117.52,117.52,0,0,1-10.68,16.36C763.43,349.71,663.74,274.93,663.74,274.93ZM633.6,101.8a4.82,4.82,0,1,0,5.53-4h0A4.84,4.84,0,0,0,633.6,101.8Zm105.14,16.91a8.42,8.42,0,1,0-9.66,7,8.42,8.42,0,0,0,9.66-7v0Zm-5,160.39a4.82,4.82,0,1,0-5.54,4A4.81,4.81,0,0,0,733.72,279.1Z"/><polygon class="cls-5" points="769.24 228.07 683.88 259.17 686.33 265.88 776.93 232.88 769.24 228.07"/><polygon class="cls-5" points="714.52 193.92 654.16 216.81 656.71 223.49 722.13 198.65 714.52 193.92"/><polygon class="cls-5" points="664.43 162.62 617.4 181.26 620.03 187.91 671.95 167.31 664.43 162.62"/><polygon class="cls-5" points="760.06 137.2 769.65 228.34 776.59 232.68 777.29 232.6 767.16 136.47 760.06 137.2"/><polygon class="cls-5" points="660.87 111.66 664.82 162.85 671.7 167.18 672.29 167.12 667.99 111.1 660.87 111.66"/><polygon class="cls-5" points="589.95 118.76 805.99 253.81 809.77 247.74 589 109.74 589.95 118.76"/></g><path class="cls-8" d="M530.05,158.05a70.16,70.16,0,0,1-16.39,7.48,5.17,5.17,0,0,0-10,2.39,85.13,85.13,0,0,1-41.16-3.63l-.07,0h0c-.09-2.34-1-38.45,27.62-62,0,0,22.62-19.32,41.36-8.43-.12,0-.2.21-.27.35a5.21,5.21,0,0,0,8.1,6.45,42.38,42.38,0,0,1,4,5.79C568.52,135.17,530.05,158.05,530.05,158.05Zm-61.61-13.66a1.73,1.73,0,0,0,1.82-2.95,1.73,1.73,0,0,0-1.91,2.89Zm20-32.61a3.09,3.09,0,1,0,.93,4.27.41.41,0,0,0,.07-.11A3.09,3.09,0,0,0,488.44,111.78ZM541,135.39a1.74,1.74,0,0,0-1.81,3,1.77,1.77,0,0,0,2.39-.57,1.73,1.73,0,0,0-.55-2.37Z"/><polygon class="cls-8" points="540.93 109.11 567.43 90.09 565.93 88.01 537.81 108.2 540.93 109.11"/><polygon class="cls-5" points="528.93 116.62 527.58 149.21 530.14 149.32 531.57 114.72 528.93 116.62"/><polygon class="cls-5" points="510.09 130.12 509.44 153.29 512.01 153.36 512.7 128.24 510.09 130.12"/><polygon class="cls-5" points="492.86 142.47 492.61 160.64 495.18 160.66 495.44 140.62 492.86 142.47"/><polygon class="cls-5" points="497.5 107.24 529.07 116.52 531.45 114.81 531.52 114.56 498.21 104.79 497.5 107.24"/><polygon class="cls-5" points="512.85 128.14 488.57 120.65 487.82 123.09 510.24 130.02 512.85 128.14"/><polygon class="cls-5" points="475.44 136.68 492.99 142.38 495.35 140.68 495.43 140.47 476.24 134.24 475.44 136.68"/><polygon class="cls-5" points="468.1 161.2 542.49 107.93 540.99 105.85 464.98 160.29 468.1 161.2"/><g class="cls-3"><polygon class="cls-11" points="382.67 293.11 446.62 155.56 457.42 160.59 389.56 306.59 382.67 293.11"/><path class="cls-9" d="M363,254.75a259.36,259.36,0,0,0,16,63.77,18.89,18.89,0,0,1,16.05,34.13A311.69,311.69,0,0,0,499.22,461.77l0,.25.16-.16.16.16,0-.26c6.82-5,112.1-84.77,114-220,0,0,3.64-108.54-70.11-137.21-.14.53-.22,1-.39,1.57a19,19,0,0,1-36.87-8.41,156.09,156.09,0,0,0-25.55,1.83C340.66,92.9,363,254.75,363,254.75ZM542.36,399.38a6.28,6.28,0,1,1,8-3.74A6.34,6.34,0,0,1,542.36,399.38Zm47.47-131.31a11.08,11.08,0,1,1-14.13,6.67,11.13,11.13,0,0,1,14.13-6.67ZM402.74,171.86a6.29,6.29,0,1,1-8.07,3.75,6.34,6.34,0,0,1,8.07-3.75Z"/><polygon class="cls-9" points="477.88 112.23 471.81 -6.71 481.16 -7.17 487.61 119.06 477.88 112.23"/><polygon class="cls-5" points="483.82 163.56 393.89 241.66 387.75 234.61 483.2 151.7 483.82 163.56"/><polygon class="cls-5" points="488.2 248.04 423.58 302.66 417.52 295.53 487.59 236.28 488.2 248.04"/><polygon class="cls-5" points="492.23 325.37 440.95 367.43 435.01 360.18 491.63 313.76 492.23 325.37"/><polygon class="cls-5" points="582.17 231.88 483.78 162.93 483.2 152.21 483.75 151.46 587.55 224.2 582.17 231.88"/><polygon class="cls-5" points="487.57 235.67 564.25 287.88 558.95 295.63 488.16 247.41 487.57 235.67"/><polygon class="cls-5" points="548.41 361.85 492.19 324.78 491.65 314.14 492.06 313.49 553.55 354.05 548.41 361.85"/><polygon class="cls-5" points="495.18 438.65 477.67 105.05 487.06 104.6 504.91 445.47 495.18 438.65"/></g><g class="cls-3"><polygon class="cls-11" points="521.73 81.75 585.68 -55.8 596.48 -50.77 528.62 95.23 521.73 81.75"/><path class="cls-9" d="M502.07,43.39a260.26,260.26,0,0,0,16,63.77,18.89,18.89,0,0,1,16.06,34.13A311.49,311.49,0,0,0,638.28,250.4l0,.26.16-.16.16.16,0-.26c6.83-5,112.1-84.77,114-220,0,0,3.64-108.55-70.12-137.21-.13.53-.21,1-.38,1.57a19.12,19.12,0,0,1-24.45,11.47,19,19,0,0,1-12.42-19.88,154.92,154.92,0,0,0-25.55,1.83C479.72-118.46,502.07,43.39,502.07,43.39ZM681.42,188a6.28,6.28,0,1,1,8.05-3.73A6.33,6.33,0,0,1,681.42,188ZM728.89,56.7a11.08,11.08,0,1,1-14.13,6.68,11.14,11.14,0,0,1,14.13-6.68ZM541.8-39.51a6.35,6.35,0,0,1,3.75,8.07,6.34,6.34,0,0,1-8.07,3.76,6.32,6.32,0,0,1-3.75-8.07,6.32,6.32,0,0,1,8.07-3.76Z"/><polygon class="cls-5" points="622.88 -47.8 532.94 30.3 526.81 23.25 622.25 -59.66 622.88 -47.8"/><polygon class="cls-5" points="627.26 36.68 562.63 91.3 556.58 84.17 626.65 24.92 627.26 36.68"/><polygon class="cls-5" points="631.29 114.01 580.01 156.07 574.07 148.82 630.68 102.4 631.29 114.01"/><polygon class="cls-5" points="721.23 20.52 622.84 -48.43 622.26 -59.15 622.8 -59.9 726.61 12.84 721.23 20.52"/><polygon class="cls-5" points="626.63 24.31 703.3 76.51 698.01 84.27 627.21 36.05 626.63 24.31"/><polygon class="cls-5" points="687.47 150.49 631.24 113.42 630.7 102.78 631.11 102.12 692.61 142.69 687.47 150.49"/><polygon class="cls-5" points="634.24 227.28 616.73 -106.31 626.11 -106.76 643.97 234.11 634.24 227.28"/></g><g class="cls-3"><path class="cls-7" d="M210.23-8.77a361.31,361.31,0,0,0-58,70.91,26.34,26.34,0,0,1-24.84,46.35c-45.72,102-36.51,198.81-35.6,207.33l-.3.07.31.09.07.29.29-.07c11.4,3.52,188,55,341.14-55.29,0,0,124.54-86.15,95.31-192.56-.7.17-1.31.63-2.05.84a26.62,26.62,0,0,1-33.16-17.78v0a26.59,26.59,0,0,1,11.9-30.45A217,217,0,0,0,482-6.18C372.87-168.38,210.23-8.77,210.23-8.77Zm-12.81,321a8.82,8.82,0,1,1,11,5.89l-.19.06A8.84,8.84,0,0,1,197.42,312.26Zm186.48-56a15.43,15.43,0,1,1-19.24-10.36A15.43,15.43,0,0,1,383.9,256.25ZM336.08-33.24a8.88,8.88,0,0,1-5.93,11,8.85,8.85,0,0,1-11-5.93,8.82,8.82,0,0,1,5.91-11,8.85,8.85,0,0,1,11,5.9Z"/><polygon class="cls-7" points="465.29 1.35 593.4 -104.36 601.71 -94.26 465.72 17.92 465.29 1.35"/><polygon class="cls-5" points="412.74 50.69 250.52 14.89 253.35 2.17 425.52 40.11 412.74 50.69"/><polygon class="cls-5" points="321.79 125.81 206.9 98.86 209.89 86.15 334.47 115.35 321.79 125.81"/><polygon class="cls-5" points="238.85 198.81 149.11 176.37 152.3 163.71 251.34 188.48 238.85 198.81"/><polygon class="cls-5" points="418.01 217.59 413.41 50.09 424.94 40.56 426.24 40.53 431.07 217.22 418.01 217.59"/><polygon class="cls-5" points="335.13 114.82 340.39 244.07 327.34 244.59 322.47 125.24 335.13 114.82"/><polygon class="cls-5" points="244.69 292.03 239.47 198.28 250.92 188.8 252 188.73 257.73 291.29 244.69 292.03"/><polygon class="cls-5" points="114.18 292.08 473.15 -4.84 481.46 5.26 114.61 308.65 114.18 292.08"/></g><g class="cls-12"><g class="cls-3"><path class="cls-4" d="M567.76,406.54a252.26,252.26,0,0,1-7.38,63.58,18.39,18.39,0,0,0-11.2,34.95c-28.95,72.42-82,114.81-86.72,118.48l0,.24-.2-.1-.17.13,0-.24c-7.28-4-118.81-67.61-137.82-198,0,0-17.21-104.28,50.35-141.28.17.5.36,1,.57,1.46A18.54,18.54,0,0,0,409.72,273a152.37,152.37,0,0,1,24.9-1.39C568.9,247.5,567.76,406.54,567.76,406.54ZM413,568.8a23.51,23.51,0,1,0-.08,0Zm-62.4-120.75a10.77,10.77,0,1,0,14.51,4.63,10.77,10.77,0,0,0-14.51-4.63l-.05,0ZM519,331.57a6.16,6.16,0,1,0,8.24,2.8.89.89,0,0,0-.08-.17,6.17,6.17,0,0,0-8.23-2.64Z"/><polygon class="cls-5" points="439.66 333.8 536.33 397.82 541.34 390.22 438.75 322.26 439.66 333.8"/><polygon class="cls-5" points="446.09 415.87 515.38 460.45 520.32 452.78 445.19 404.45 446.09 415.87"/><polygon class="cls-5" points="451.98 491.02 506.78 525.14 511.6 517.42 451.1 479.75 451.98 491.02"/><polygon class="cls-5" points="353.36 412.14 439.63 333.16 438.81 322.77 438.2 322.12 347.22 405.42 353.36 412.14"/><polygon class="cls-5" points="445.14 403.86 377.74 463.94 383.82 470.74 446.05 415.26 445.14 403.86"/><polygon class="cls-5" points="402.38 533.33 451.95 490.45 451.15 480.1 450.65 479.54 396.42 526.44 402.38 533.33"/><polygon class="cls-5" points="463.45 600.73 438.19 276.55 429.1 277.29 454.93 608.55 463.45 600.73"/></g><g class="cls-3"><path class="cls-10" d="M618.3,287.25a162.07,162.07,0,0,1,17,37.31,11.78,11.78,0,0,0,5.4,22.88c8.05,49.29-7,90.09-8.42,93.64l.09.13-.12,0-.05.12-.09-.11c-5.34.19-87.51,2.18-141-63.05,0,0-43.91-51.52-19.07-94.14a9.38,9.38,0,0,0,.8.61,11.87,11.87,0,0,0,14.76-18.35,97.69,97.69,0,0,1,13.17-9C566.38,199.64,618.3,287.25,618.3,287.25ZM587,427.32a2.91,2.91,0,1,0,0,.13l0-.05Zm-74.13-45.6a4.91,4.91,0,1,1,0,.08Zm53.88-119.43a3.94,3.94,0,1,0,5.43-1.3,3.94,3.94,0,0,0-5.43,1.3Z"/><polygon class="cls-5" points="524 289.68 598.17 292.85 598.41 287.03 519.68 283.65 524 289.68"/><polygon class="cls-5" points="554.64 332.57 607.37 334.13 607.55 328.29 550.38 326.62 554.64 332.57"/><polygon class="cls-5" points="582.7 371.84 624.04 372.46 624.13 366.63 578.49 365.95 582.7 371.84"/><polygon class="cls-5" points="502.54 361.17 523.76 289.35 519.88 283.91 519.32 283.75 496.95 359.51 502.54 361.17"/><polygon class="cls-5" points="550.15 326.3 533.03 381.52 538.61 383.25 554.42 332.25 550.15 326.3"/><polygon class="cls-5" points="569.48 411.45 582.49 371.55 578.63 366.14 578.17 365.99 563.92 409.63 569.48 411.45"/><polygon class="cls-5" points="625.25 428.23 504.27 258.77 499.53 262.17 623.16 435.35 625.25 428.23"/></g><g class="cls-3"><path class="cls-6" d="M1180.73,516.75a250.78,250.78,0,0,1-50.32,39.13,18.3,18.3,0,0,0-32.63,16.45c-71.63,30-138.77,21.91-144.65,21.09l-.15.2v-.22h-.21l.17-.17c-2.23-8-34.93-131.56,44.37-236,0,0,62.06-85,135.47-62.86a15.39,15.39,0,0,0-.64,1.44,18.46,18.46,0,0,0,33.16,15.61A147.72,147.72,0,0,1,1183.72,328C1294.46,406.59,1180.73,516.75,1180.73,516.75Zm-223.26,3.3a6.13,6.13,0,1,0-3.9-7.74v0a6.1,6.1,0,0,0,3.88,7.71Zm42.18-128.56A10.72,10.72,0,1,0,1006.5,405v0A10.73,10.73,0,0,0,999.65,391.49Zm200.27,38.25a6.13,6.13,0,1,0,3.9,7.74v0a6.1,6.1,0,0,0-3.89-7.71Z"/><polygon class="cls-5" points="1142.98 375.03 1164.98 488.34 1173.89 486.6 1150.52 366.33 1142.98 375.03"/><polygon class="cls-5" points="1089.19 436.88 1105.88 517.18 1114.77 515.33 1096.66 428.28 1089.19 436.88"/><polygon class="cls-5" points="1039.94 493.5 1053.95 556.23 1062.81 554.25 1047.34 485.01 1039.94 493.5"/><polygon class="cls-5" points="1027.11 368.42 1143.39 374.57 1150.23 366.71 1150.26 365.82 1027.61 359.36 1027.11 368.42"/><polygon class="cls-5" points="1097.05 427.82 1007.36 421.89 1006.77 430.95 1089.58 436.42 1097.05 427.82"/><polygon class="cls-5" points="975.26 487.8 1040.31 493.06 1047.1 485.3 1047.17 484.53 976 478.76 975.26 487.8"/><polygon class="cls-5" points="970.05 578.21 1182.59 334.04 1175.73 328.07 958.53 577.62 970.05 578.21"/></g><g class="cls-3"><path class="cls-7" d="M845.59,569.93a204.51,204.51,0,0,1-33,40.07,14.92,14.92,0,0,0-23,18.91c-51.62,36.66-106.46,42.23-111.3,42.67v.17l-.08-.16H678v-.17c-3.22-5.94-51.32-98.42-6.91-195.68,0,0,34.13-78.72,96.49-74.22,0,.42-.2.81-.24,1.24a15.07,15.07,0,0,0,13.54,16.46h0a15.08,15.08,0,0,0,15.61-10,123.26,123.26,0,0,1,17.63,9.95C916.34,461.94,845.59,569.93,845.59,569.93Zm-177,42.55a5,5,0,1,0-4.49-5.46s0,.08,0,.12A5,5,0,0,0,668.6,612.48Zm10.54-109.82a8.74,8.74,0,1,0,7.89,9.56A8.74,8.74,0,0,0,679.14,502.66ZM845.3,497.3a5,5,0,1,0,4.49,5.46,5,5,0,0,0-4.49-5.46Z"/><polygon class="cls-7" points="811.82 429.31 856.43 346.45 849.9 342.94 802.56 430.9 811.82 429.31"/><polygon class="cls-5" points="790.2 463.95 827.99 550.16 834.75 547.18 794.67 455.69 790.2 463.95"/><polygon class="cls-5" points="758.49 522.78 786.14 583.66 792.87 580.6 762.9 514.59 758.49 522.78"/><polygon class="cls-5" points="727.07 576.93 749.45 624.33 756.13 621.16 731.43 568.85 727.07 576.93"/><polygon class="cls-5" points="696.86 479.44 790.46 463.52 794.48 456.06 794.36 455.33 695.63 472.14 696.86 479.44"/><polygon class="cls-5" points="763.12 514.16 690.72 525.5 691.86 532.81 758.73 522.35 763.12 514.16"/><polygon class="cls-5" points="674.62 583.97 727.29 576.53 731.3 569.12 731.22 568.52 673.59 576.65 674.62 583.97"/><polygon class="cls-5" points="689 656.51 814.39 424.26 807.86 420.75 679.74 658.1 689 656.51"/><path class="cls-4" d="M950.16,250.8a275.43,275.43,0,0,1,61.22,33.54A20.06,20.06,0,0,0,1042.1,310c61.29,59,82.35,130,84.12,136.25l.23.13-.18.16.06.22-.23-.13c-7,5.71-117.07,92.31-256.58,58,0,0-112.44-25.4-122.1-108.85a16.26,16.26,0,0,0,1.71,0,20.22,20.22,0,0,0,1.26-40.13A165.81,165.81,0,0,1,759.2,330C789.94,184.38,950.16,250.8,950.16,250.8Zm100.45,222.93a27.11,27.11,0,1,0,0,.07ZM903,487.23a11.74,11.74,0,1,0,10.64-12.76A11.75,11.75,0,0,0,903,487.23v.06Zm-48.58-218a6.71,6.71,0,1,0,6.21-7.18l-.21,0a6.73,6.73,0,0,0-6,7.23Z"/><polygon class="cls-5" points="824.1 350.39 928.45 278.98 922.84 270.79 812.07 346.56 824.1 350.39"/><polygon class="cls-5" points="909.67 377.56 983.14 325.84 977.42 317.71 897.76 373.79 909.67 377.56"/><polygon class="cls-5" points="988.02 402.45 1044.98 361.08 1039.15 353.04 976.26 398.71 988.02 402.45"/><polygon class="cls-5" points="867.84 469.73 823.45 350.15 812.6 346.71 811.7 347.07 858.53 473.18 867.84 469.73"/><polygon class="cls-5" points="897.14 373.59 930.19 466.35 939.55 463 909.03 377.36 897.14 373.59"/><polygon class="cls-5" points="1010.41 469.94 987.42 402.25 976.64 398.81 975.86 399.09 1001 473.12 1010.41 469.94"/><polygon class="cls-5" points="1103.58 435.88 765.65 328.37 762.67 337.86 1107.98 447.71 1103.58 435.88"/><path class="cls-9" d="M622.24,433.63a198.39,198.39,0,0,1-36.61-34.23,14.39,14.39,0,0,0-16.81-23.32c-32.15-52-34.16-105.17-34.27-109.83l-.15-.11.16,0,0-.17.15.11c5.93-2.72,98-43.38,188.94,5.34,0,0,73.73,37.74,65.58,97.52-.4-.09-.78-.24-1.18-.31a14.53,14.53,0,0,0-8,27.57,117.52,117.52,0,0,1-10.68,16.36C721.92,508.41,622.24,433.63,622.24,433.63ZM592.1,260.5a4.82,4.82,0,1,0,5.52-4h0A4.84,4.84,0,0,0,592.1,260.5Zm105.14,16.91a8.43,8.43,0,1,0-9.66,7,8.42,8.42,0,0,0,9.66-7v0Zm-5,160.39a4.82,4.82,0,1,0-5.54,4A4.82,4.82,0,0,0,692.22,437.8Z"/><polygon class="cls-5" points="727.74 386.77 642.38 417.87 644.83 424.58 735.43 391.58 727.74 386.77"/><polygon class="cls-5" points="673.02 352.62 612.66 375.51 615.21 382.2 680.63 357.35 673.02 352.62"/><polygon class="cls-5" points="622.93 321.33 575.9 339.96 578.53 346.61 630.44 326.02 622.93 321.33"/><polygon class="cls-5" points="718.56 295.9 728.15 387.05 735.09 391.38 735.79 391.3 725.66 295.17 718.56 295.9"/><polygon class="cls-5" points="619.37 270.36 623.31 321.56 630.2 325.88 630.79 325.82 626.49 269.8 619.37 270.36"/><polygon class="cls-5" points="548.45 277.46 764.49 412.51 768.27 406.44 547.5 268.44 548.45 277.46"/></g><path class="cls-8" d="M190.86,612a126.46,126.46,0,0,1-29.48,13.45,9.17,9.17,0,0,0-4-5.22,9.3,9.3,0,0,0-14.08,9.52,153.11,153.11,0,0,1-74-6.53l-.13,0h0c-.17-4.2-1.8-69.14,49.67-111.5,0,0,40.67-34.74,74.36-15.16-.21.09-.35.39-.49.63a9.38,9.38,0,0,0,14.57,11.6,78,78,0,0,1,7.15,10.41C260,570.87,190.86,612,190.86,612ZM80.07,587.44a3.14,3.14,0,1,0-.16-.1Zm36-58.64a5.56,5.56,0,1,0,1.69,7.68l.12-.19A5.56,5.56,0,0,0,116,528.8Zm94.53,42.46a3.12,3.12,0,1,0,1,4.29,3.12,3.12,0,0,0-1-4.29Z"/><polygon class="cls-8" points="210.41 524 258.06 489.8 255.36 486.06 204.8 522.36 210.41 524"/><polygon class="cls-5" points="188.84 537.5 186.41 596.11 191.01 596.31 193.58 534.1 188.84 537.5"/><polygon class="cls-5" points="154.97 561.77 153.79 603.45 158.42 603.58 159.66 558.39 154.97 561.77"/><polygon class="cls-5" points="123.97 583.99 123.52 616.66 128.14 616.7 128.62 580.66 123.97 583.99"/><polygon class="cls-5" points="132.32 520.63 189.1 537.33 193.38 534.25 193.49 533.8 133.61 516.23 132.32 520.63"/><polygon class="cls-5" points="159.92 558.22 116.26 544.75 114.91 549.15 155.23 561.6 159.92 558.22"/><polygon class="cls-5" points="92.65 573.58 124.2 583.83 128.46 580.76 128.6 580.39 94.09 569.2 92.65 573.58"/><polygon class="cls-5" points="79.45 617.66 213.23 521.88 210.53 518.14 73.84 616.02 79.45 617.66"/><g class="cls-3"><polygon class="cls-11" points="136.55 483.76 72.6 346.21 61.8 351.24 129.66 497.25 136.55 483.76"/><path class="cls-9" d="M156.2,445.4a259.55,259.55,0,0,1-16,63.78,18.78,18.78,0,0,0-13.35-.24,18.88,18.88,0,0,0-2.7,34.36A311.69,311.69,0,0,1,20,652.42l0,.25-.16-.15-.16.15,0-.25c-6.82-5-112.1-84.78-114-220,0,0-3.64-108.54,70.11-137.21.14.53.21,1,.39,1.58A19.11,19.11,0,0,0,.64,308.23a19,19,0,0,0,12.43-19.87,155,155,0,0,1,25.55,1.82C178.56,283.56,156.2,445.4,156.2,445.4ZM-23.14,590a6.34,6.34,0,0,0,3.77-8,6.34,6.34,0,0,0-8.07-3.76,6.32,6.32,0,0,0-3.75,8.07A6.31,6.31,0,0,0-23.14,590ZM-70.61,458.72a11.12,11.12,0,0,0-6.68,14.21,11.14,11.14,0,0,0,14.18,6.64,11.13,11.13,0,0,0,6.63-14.18,11.12,11.12,0,0,0-14.13-6.67Zm187.09-96.21a6.29,6.29,0,1,0,8.07,3.75,6.34,6.34,0,0,0-8.07-3.75Z"/><polygon class="cls-9" points="41.34 302.89 47.4 183.94 38.06 183.48 31.61 309.71 41.34 302.89"/><polygon class="cls-5" points="35.4 354.21 125.33 432.32 131.46 425.26 36.02 342.35 35.4 354.21"/><polygon class="cls-5" points="31.02 438.7 95.64 493.31 101.69 486.18 31.63 426.93 31.02 438.7"/><polygon class="cls-5" points="26.99 516.02 78.27 558.08 84.21 550.83 27.59 504.42 26.99 516.02"/><polygon class="cls-5" points="-62.95 422.53 35.44 353.58 36.02 342.86 35.47 342.11 -68.33 414.85 -62.95 422.53"/><polygon class="cls-5" points="31.65 426.32 -45.03 478.53 -39.73 486.29 31.06 438.07 31.65 426.32"/><polygon class="cls-5" points="-29.19 552.5 27.03 515.43 27.57 504.79 27.16 504.14 -34.33 544.71 -29.19 552.5"/><polygon class="cls-5" points="24.04 629.3 41.55 295.7 32.16 295.25 14.31 636.12 24.04 629.3"/></g><g class="cls-3"><polygon class="cls-11" points="1310.31 618.04 1246.36 480.5 1235.56 485.53 1303.42 631.53 1310.31 618.04"/><path class="cls-9" d="M1330,579.69a259.36,259.36,0,0,1-16,63.77,18.78,18.78,0,0,0-13.35-.24,19,19,0,0,0-11.39,24.29,18.73,18.73,0,0,0,8.69,10.07A311.52,311.52,0,0,1,1193.76,786.7l0,.26-.16-.16-.16.16,0-.26c-6.82-5-112.1-84.78-114-220,0,0-3.64-108.55,70.11-137.21.14.53.22,1,.39,1.57a19,19,0,0,0,36.87-8.41,153.91,153.91,0,0,1,25.55,1.83C1352.32,417.84,1330,579.69,1330,579.69ZM1150.62,724.31a6.28,6.28,0,1,0-8-3.73A6.34,6.34,0,0,0,1150.62,724.31ZM1103.15,593a11.08,11.08,0,1,0,14.13,6.68,11.13,11.13,0,0,0-14.13-6.68Zm187.09-96.21a6.3,6.3,0,1,0,8.07,3.76,6.35,6.35,0,0,0-8.07-3.76Z"/><polygon class="cls-9" points="1215.1 437.17 1221.16 318.22 1211.82 317.77 1205.37 443.99 1215.1 437.17"/><polygon class="cls-5" points="1209.16 488.5 1299.09 566.6 1305.23 559.54 1209.78 476.63 1209.16 488.5"/><polygon class="cls-5" points="1204.78 572.98 1269.4 627.6 1275.46 620.46 1205.39 561.22 1204.78 572.98"/><polygon class="cls-5" points="1200.75 650.31 1252.03 692.37 1257.97 685.12 1201.36 638.7 1200.75 650.31"/><polygon class="cls-5" points="1110.81 556.81 1209.2 487.87 1209.78 477.15 1209.23 476.4 1105.43 549.14 1110.81 556.81"/><polygon class="cls-5" points="1205.41 560.61 1128.73 612.81 1134.03 620.57 1204.82 572.35 1205.41 560.61"/><polygon class="cls-5" points="1144.57 686.78 1200.79 649.72 1201.33 639.07 1200.92 638.42 1139.43 678.99 1144.57 686.78"/><polygon class="cls-5" points="1197.8 763.58 1215.31 429.99 1205.92 429.53 1188.07 770.4 1197.8 763.58"/></g><g class="cls-3"><path class="cls-7" d="M350.21,353.12a361,361,0,0,1,58,70.91,26.34,26.34,0,0,0,24.84,46.35c45.73,102,36.52,198.81,35.6,207.33l.3.07-.3.09-.07.29-.3-.07c-11.4,3.52-188,55-341.14-55.29,0,0-124.54-86.15-95.31-192.56.71.17,1.32.63,2.05.84a26.61,26.61,0,0,0,33.16-17.79v0a26.58,26.58,0,0,0-11.9-30.45,217,217,0,0,1,23.27-27.11C187.57,193.51,350.21,353.12,350.21,353.12Zm12.81,321A8.82,8.82,0,1,0,352,680l.2.06A8.84,8.84,0,0,0,363,674.15Zm-186.48-56a15.43,15.43,0,1,0,19.25-10.36A15.43,15.43,0,0,0,176.54,618.14Zm47.83-289.49a8.82,8.82,0,1,0,11-5.9,8.86,8.86,0,0,0-11,5.9Z"/><polygon class="cls-7" points="95.16 363.24 -32.96 257.53 -41.27 267.63 94.73 379.81 95.16 363.24"/><polygon class="cls-5" points="147.7 412.57 309.93 376.79 307.1 364.06 134.93 402 147.7 412.57"/><polygon class="cls-5" points="238.65 487.7 353.54 460.75 350.55 448.04 225.97 477.24 238.65 487.7"/><polygon class="cls-5" points="321.59 560.7 411.33 538.26 408.14 525.6 309.1 550.37 321.59 560.7"/><polygon class="cls-5" points="142.43 579.48 147.03 411.98 135.5 402.45 134.2 402.42 129.37 579.11 142.43 579.48"/><polygon class="cls-5" points="225.32 476.71 220.05 605.96 233.1 606.48 237.97 487.13 225.32 476.71"/><polygon class="cls-5" points="315.75 653.92 320.97 560.17 309.52 550.69 308.45 550.62 302.71 653.18 315.75 653.92"/><polygon class="cls-5" points="446.26 653.97 87.3 357.05 78.98 367.15 445.83 670.54 446.26 653.97"/></g></g><g class="cls-3"><path class="cls-6" d="M1761.21,255.88A250.78,250.78,0,0,1,1710.89,295a18.3,18.3,0,0,0-32.63,16.45c-71.63,30-138.77,21.91-144.65,21.09l-.15.2v-.22h-.21l.17-.17c-2.23-8-34.93-131.56,44.37-236,0,0,62.06-85,135.47-62.86a15.39,15.39,0,0,0-.64,1.44,18.46,18.46,0,0,0,33.16,15.61,147.72,147.72,0,0,1,18.42,16.66C1874.94,145.72,1761.21,255.88,1761.21,255.88ZM1538,259.18a6.13,6.13,0,1,0-3.9-7.74v0a6.1,6.1,0,0,0,3.88,7.71Zm42.18-128.56a10.72,10.72,0,1,0,6.85,13.54v0A10.73,10.73,0,0,0,1580.13,130.62Zm200.27,38.25a6.13,6.13,0,1,0,3.9,7.74v0a6.1,6.1,0,0,0-3.89-7.71Z"/><polygon class="cls-5" points="1723.46 114.16 1745.46 227.47 1754.37 225.73 1731 105.46 1723.46 114.16"/><polygon class="cls-5" points="1669.67 176.01 1686.37 256.31 1695.25 254.46 1677.14 167.41 1669.67 176.01"/><polygon class="cls-5" points="1620.42 232.63 1634.43 295.36 1643.29 293.38 1627.82 224.14 1620.42 232.63"/><polygon class="cls-5" points="1607.59 107.55 1723.87 113.7 1730.71 105.84 1730.74 104.95 1608.09 98.49 1607.59 107.55"/><polygon class="cls-5" points="1677.53 166.95 1587.84 161.02 1587.25 170.08 1670.06 175.55 1677.53 166.95"/><polygon class="cls-5" points="1555.74 226.93 1620.79 232.19 1627.58 224.43 1627.65 223.66 1556.48 217.89 1555.74 226.93"/><polygon class="cls-5" points="1550.53 317.34 1763.07 73.17 1756.21 67.2 1539.01 316.75 1550.53 317.34"/></g><g class="cls-3"><path class="cls-7" d="M1459.82,267.5a204.45,204.45,0,0,1-33,40.06,14.92,14.92,0,0,0-23,18.92c-51.62,36.66-106.46,42.23-111.3,42.66v.18l-.08-.16h-.17V369c-3.21-6-51.32-98.42-6.91-195.68,0,0,34.13-78.72,96.49-74.22,0,.41-.2.8-.24,1.23a15.08,15.08,0,0,0,13.54,16.47h0a15.06,15.06,0,0,0,15.61-10,122.66,122.66,0,0,1,17.63,9.94C1530.57,159.51,1459.82,267.5,1459.82,267.5Zm-177,42.54a5,5,0,1,0-4.49-5.45s0,.08,0,.11A5,5,0,0,0,1282.83,310Zm10.55-109.81a8.74,8.74,0,1,0,7.88,9.55A8.74,8.74,0,0,0,1293.38,200.23Zm166.15-5.37a5,5,0,1,0,4.49,5.46,5,5,0,0,0-4.49-5.46Z"/><polygon class="cls-7" points="1426.05 126.88 1470.66 44.02 1464.13 40.51 1416.8 128.47 1426.05 126.88"/><polygon class="cls-5" points="1404.43 161.52 1442.22 247.72 1448.98 244.75 1408.9 153.25 1404.43 161.52"/><polygon class="cls-5" points="1372.72 220.35 1400.37 281.23 1407.11 278.16 1377.13 212.15 1372.72 220.35"/><polygon class="cls-5" points="1341.3 274.5 1363.68 321.89 1370.36 318.73 1345.66 266.42 1341.3 274.5"/><polygon class="cls-5" points="1311.1 177.01 1404.69 161.08 1408.71 153.63 1408.59 152.9 1309.86 169.71 1311.1 177.01"/><polygon class="cls-5" points="1377.36 211.73 1304.95 223.06 1306.1 230.38 1372.96 219.91 1377.36 211.73"/><polygon class="cls-5" points="1288.85 281.54 1341.53 274.1 1345.53 266.69 1345.45 266.08 1287.82 274.21 1288.85 281.54"/><polygon class="cls-5" points="1303.23 354.07 1428.62 121.83 1422.09 118.32 1293.97 355.66 1303.23 354.07"/><path class="cls-4" d="M1564.39-51.63a275,275,0,0,1,61.22,33.54,20.07,20.07,0,0,0,4.36,28,20.06,20.06,0,0,0,26.36-2.37c61.29,59,82.35,130,84.12,136.25l.23.13-.18.16.06.22-.23-.13c-7,5.71-117.07,92.31-256.58,58,0,0-112.44-25.41-122.09-108.85.56,0,1.14,0,1.71,0a20.22,20.22,0,0,0,1.25-40.13,165.81,165.81,0,0,1,8.81-25.73C1404.17-118,1564.39-51.63,1564.39-51.63Zm100.46,222.92a20.65,20.65,0,1,0,0,.08ZM1517.24,184.8A11.74,11.74,0,1,0,1527.87,172a11.74,11.74,0,0,0-10.63,12.77v.06Zm-48.58-218a6.71,6.71,0,0,0,7.17,6.21,6.73,6.73,0,0,0,6.22-7.18,6.72,6.72,0,0,0-7.18-6.21l-.22,0a6.71,6.71,0,0,0-6,7.23Z"/><polygon class="cls-5" points="1438.33 47.95 1542.68 -23.45 1537.07 -31.64 1426.3 44.13 1438.33 47.95"/><polygon class="cls-5" points="1523.9 75.13 1597.37 23.41 1591.65 15.28 1511.99 71.36 1523.9 75.13"/><polygon class="cls-5" points="1602.25 100.02 1659.21 58.65 1653.38 50.61 1590.49 96.28 1602.25 100.02"/><polygon class="cls-5" points="1482.07 167.3 1437.68 47.72 1426.84 44.28 1425.93 44.63 1472.76 170.75 1482.07 167.3"/><polygon class="cls-5" points="1511.37 71.16 1544.42 163.92 1553.79 160.57 1523.27 74.92 1511.37 71.16"/><polygon class="cls-5" points="1624.64 167.5 1601.65 99.82 1590.87 96.38 1590.1 96.65 1615.23 170.69 1624.64 167.5"/><polygon class="cls-5" points="1717.81 133.45 1379.88 25.94 1376.9 35.43 1722.21 145.28 1717.81 133.45"/><path class="cls-9" d="M1236.47,131.2A198.1,198.1,0,0,1,1199.86,97a14.39,14.39,0,0,0-16.81-23.32c-32.15-52-34.16-105.16-34.26-109.83l-.16-.1.16,0,0-.17.15.1c5.93-2.71,97.95-43.37,188.94,5.35,0,0,73.74,37.74,65.58,97.52-.4-.1-.78-.25-1.18-.31a14.53,14.53,0,0,0-8,27.56,117,117,0,0,1-10.68,16.37C1336.16,206,1236.47,131.2,1236.47,131.2ZM1206.33-41.93a4.81,4.81,0,0,0,4,5.52,4.81,4.81,0,0,0,5.52-4,4.81,4.81,0,0,0-4-5.53h0A4.82,4.82,0,0,0,1206.33-41.93ZM1311.47-25a8.42,8.42,0,0,0-7-9.64,8.43,8.43,0,0,0-9.65,7,8.44,8.44,0,0,0,7,9.64,8.43,8.43,0,0,0,9.66-7v0Zm-5,160.39a4.82,4.82,0,1,0-5.54,4A4.82,4.82,0,0,0,1306.45,135.37Z"/><polygon class="cls-5" points="1341.97 84.34 1256.61 115.43 1259.06 122.15 1349.66 89.14 1341.97 84.34"/><polygon class="cls-5" points="1287.25 50.18 1226.89 73.08 1229.44 79.76 1294.86 54.91 1287.25 50.18"/><polygon class="cls-5" points="1237.16 18.89 1190.13 37.53 1192.76 44.18 1244.68 23.58 1237.16 18.89"/><polygon class="cls-5" points="1332.79 -6.53 1342.38 84.61 1349.32 88.95 1350.02 88.87 1339.89 -7.26 1332.79 -6.53"/><polygon class="cls-5" points="1233.6 -32.07 1237.55 19.12 1244.43 23.44 1245.02 23.39 1240.72 -32.63 1233.6 -32.07"/><polygon class="cls-5" points="1162.68 -24.97 1378.72 110.07 1382.5 104 1161.73 -33.99 1162.68 -24.97"/></g><g class="cls-3"><polygon class="cls-11" points="1890.79 357.17 1826.84 219.63 1816.04 224.66 1883.9 370.66 1890.79 357.17"/><path class="cls-9" d="M1910.44,318.82a259.36,259.36,0,0,1-16,63.77,18.78,18.78,0,0,0-13.35-.24,19,19,0,0,0-11.39,24.29,18.73,18.73,0,0,0,8.69,10.07,311.52,311.52,0,0,1-104.14,109.12l0,.26-.16-.16-.16.16,0-.26c-6.82-5-112.1-84.78-114-220,0,0-3.64-108.55,70.11-137.21.14.53.22,1,.39,1.57a19,19,0,0,0,36.87-8.41,153.91,153.91,0,0,1,25.55,1.83C1932.8,157,1910.44,318.82,1910.44,318.82ZM1731.1,463.44a6.28,6.28,0,1,0-8-3.73A6.34,6.34,0,0,0,1731.1,463.44Zm-47.47-131.31a11.08,11.08,0,1,0,14.13,6.68,11.13,11.13,0,0,0-14.13-6.68Zm187.09-96.21a6.3,6.3,0,1,0,8.07,3.76,6.35,6.35,0,0,0-8.07-3.76Z"/><polygon class="cls-9" points="1795.58 176.3 1801.64 57.35 1792.3 56.9 1785.85 183.12 1795.58 176.3"/><polygon class="cls-5" points="1789.64 227.63 1879.57 305.73 1885.7 298.68 1790.26 215.76 1789.64 227.63"/><polygon class="cls-5" points="1785.26 312.11 1849.88 366.73 1855.94 359.59 1785.87 300.35 1785.26 312.11"/><polygon class="cls-5" points="1781.23 389.44 1832.51 431.5 1838.45 424.25 1781.84 377.83 1781.23 389.44"/><polygon class="cls-5" points="1691.29 295.94 1789.68 227 1790.26 216.28 1789.71 215.53 1685.91 288.27 1691.29 295.94"/><polygon class="cls-5" points="1785.89 299.74 1709.21 351.94 1714.51 359.7 1785.3 311.48 1785.89 299.74"/><polygon class="cls-5" points="1725.05 425.92 1781.27 388.85 1781.81 378.2 1781.4 377.55 1719.91 418.12 1725.05 425.92"/><polygon class="cls-5" points="1778.28 502.71 1795.79 169.12 1786.4 168.66 1768.55 509.54 1778.28 502.71"/></g><path class="cls-7" d="M1889.84-97.45a361.31,361.31,0,0,1,58,70.91,26.2,26.2,0,0,0-11.39,14.74,26.45,26.45,0,0,0,17.7,33,26.41,26.41,0,0,0,18.53-1.35c45.72,102,36.51,198.81,35.6,207.33l.29.07-.3.09-.07.29-.29-.07c-11.4,3.53-188,55-341.15-55.29,0,0-124.54-86.15-95.31-192.56.71.17,1.32.63,2,.84a26.63,26.63,0,0,0,33.17-17.78v0a26.57,26.57,0,0,0-11.9-30.45,217.05,217.05,0,0,1,23.28-27.11C1727.2-257.06,1889.84-97.45,1889.84-97.45Zm12.81,321a8.82,8.82,0,1,0-11,5.89l.19.06A8.84,8.84,0,0,0,1902.65,223.58Zm-186.48-56a15.42,15.42,0,1,0,19.24-10.36A15.43,15.43,0,0,0,1716.17,167.57ZM1764-121.92a8.87,8.87,0,0,0,5.93,11,8.83,8.83,0,0,0,11-5.93,8.81,8.81,0,0,0-5.9-11,8.84,8.84,0,0,0-11,5.9Z"/><polygon class="cls-5" points="1778.27 37.13 1893.17 10.18 1890.18 -2.53 1765.6 26.67 1778.27 37.13"/><polygon class="cls-5" points="1861.22 110.13 1950.96 87.69 1947.77 75.03 1848.72 99.81 1861.22 110.13"/><polygon class="cls-5" points="1682.06 128.91 1686.66 -38.59 1675.13 -48.12 1673.83 -48.15 1669 128.54 1682.06 128.91"/><polygon class="cls-5" points="1764.94 26.14 1759.67 155.39 1772.73 155.91 1777.6 36.56 1764.94 26.14"/><polygon class="cls-5" points="1855.37 203.35 1860.59 109.6 1849.15 100.12 1848.07 100.06 1842.34 202.61 1855.37 203.35"/><polygon class="cls-5" points="1985.89 203.4 1626.92 -93.52 1618.61 -83.42 1985.45 219.97 1985.89 203.4"/><path class="cls-8" d="M1831.36,379.53a70.16,70.16,0,0,0,16.39,7.48,5.12,5.12,0,0,1,2.22-2.9,5.16,5.16,0,0,1,7.83,5.29,85.13,85.13,0,0,0,41.16-3.63l.07,0h0c.09-2.33,1-38.45-27.62-62,0,0-22.62-19.32-41.35-8.43.11.05.19.22.26.35a5.21,5.21,0,0,1-8.1,6.45,42.38,42.38,0,0,0-4,5.79C1792.89,356.66,1831.36,379.53,1831.36,379.53ZM1893,365.87a1.73,1.73,0,0,1-1.81-2.95,1.73,1.73,0,0,1,1.9,2.9Zm-20-32.61a3.09,3.09,0,1,1-.93,4.28l-.07-.11A3.1,3.1,0,0,1,1873,333.26Zm-52.56,23.62a1.73,1.73,0,0,1,1.81,2.95,1.76,1.76,0,0,1-2.39-.57,1.73,1.73,0,0,1,.55-2.37Z"/><polygon class="cls-8" points="1820.48 330.59 1793.98 311.57 1795.48 309.49 1823.6 329.68 1820.48 330.59"/><polygon class="cls-5" points="1832.48 338.1 1833.83 370.69 1831.27 370.8 1829.84 336.21 1832.48 338.1"/><polygon class="cls-5" points="1851.32 351.6 1851.97 374.78 1849.4 374.85 1848.71 349.72 1851.32 351.6"/><polygon class="cls-5" points="1868.56 363.96 1868.81 382.12 1866.23 382.15 1865.97 362.1 1868.56 363.96"/><polygon class="cls-5" points="1863.91 328.72 1832.34 338 1829.96 336.29 1829.89 336.05 1863.2 326.27 1863.91 328.72"/><polygon class="cls-5" points="1848.56 349.62 1872.84 342.13 1873.59 344.58 1851.17 351.5 1848.56 349.62"/><polygon class="cls-5" points="1885.97 358.16 1868.42 363.87 1866.06 362.16 1865.98 361.95 1885.17 355.73 1885.97 358.16"/><polygon class="cls-5" points="1893.31 382.68 1818.92 329.42 1820.42 327.33 1896.43 381.77 1893.31 382.68"/><g class="cls-3"><polygon class="cls-11" points="1978.74 514.59 1914.79 377.05 1903.99 382.07 1971.85 528.08 1978.74 514.59"/><path class="cls-9" d="M1998.39,476.23a259.55,259.55,0,0,1-16,63.78,18.78,18.78,0,0,0-13.35-.24,18.88,18.88,0,0,0-2.7,34.36,311.6,311.6,0,0,1-104.14,109.12l0,.25-.16-.15-.16.15,0-.25c-6.82-5-112.09-84.78-114-220,0,0-3.64-108.54,70.11-137.21.14.53.22,1.05.39,1.58a19,19,0,0,0,36.87-8.41,155,155,0,0,1,25.55,1.82C2020.75,314.39,1998.39,476.23,1998.39,476.23ZM1819.05,620.86a6.28,6.28,0,1,0-8-3.74A6.34,6.34,0,0,0,1819.05,620.86Zm-47.47-131.31a11.08,11.08,0,1,0,14.13,6.67,11.13,11.13,0,0,0-14.13-6.67Zm187.09-96.21a6.29,6.29,0,1,0,8.07,3.75,6.34,6.34,0,0,0-8.07-3.75Z"/><polygon class="cls-9" points="1883.53 333.72 1889.6 214.77 1880.25 214.31 1873.8 340.54 1883.53 333.72"/><polygon class="cls-5" points="1877.59 385.04 1967.52 463.15 1973.66 456.09 1878.21 373.18 1877.59 385.04"/><polygon class="cls-5" points="1873.21 469.53 1937.83 524.14 1943.89 517.01 1873.82 457.76 1873.21 469.53"/><polygon class="cls-5" points="1869.18 546.85 1920.46 588.91 1926.4 581.66 1869.79 535.25 1869.18 546.85"/><polygon class="cls-5" points="1779.24 453.36 1877.63 384.41 1878.21 373.69 1877.66 372.94 1773.86 445.68 1779.24 453.36"/><polygon class="cls-5" points="1873.84 457.15 1797.16 509.36 1802.46 517.12 1873.25 468.9 1873.84 457.15"/><polygon class="cls-5" points="1813 583.33 1869.22 546.26 1869.76 535.62 1869.35 534.97 1807.86 575.54 1813 583.33"/><polygon class="cls-5" points="1866.23 660.13 1883.74 326.54 1874.35 326.08 1856.5 666.95 1866.23 660.13"/></g><g class="cls-3"><polygon class="cls-11" points="1839.68 303.23 1775.73 165.68 1764.93 170.71 1832.8 316.71 1839.68 303.23"/><path class="cls-9" d="M1859.34,264.87a260.45,260.45,0,0,1-16,63.78,18.76,18.76,0,0,0-13.36-.24,18.88,18.88,0,0,0-2.7,34.36,311.6,311.6,0,0,1-104.14,109.12l0,.25L1723,472l-.16.16,0-.25c-6.83-5-112.1-84.78-114-220,0,0-3.64-108.54,70.12-137.21.13.53.21,1,.38,1.58a19,19,0,0,0,36.87-8.42,156,156,0,0,1,25.55,1.83C1881.69,103,1859.34,264.87,1859.34,264.87ZM1680,409.5a6.28,6.28,0,1,0-8-3.74A6.36,6.36,0,0,0,1680,409.5Zm-47.47-131.31a11.08,11.08,0,1,0,14.13,6.67,11.13,11.13,0,0,0-14.13-6.67ZM1819.61,182a6.29,6.29,0,1,0,8.07,3.75,6.34,6.34,0,0,0-8.07-3.75Z"/><polygon class="cls-9" points="1744.47 122.36 1750.54 3.41 1741.19 2.95 1734.74 129.18 1744.47 122.36"/><polygon class="cls-5" points="1738.53 173.68 1828.47 251.79 1834.6 244.73 1739.15 161.82 1738.53 173.68"/><polygon class="cls-5" points="1734.15 258.17 1798.78 312.78 1804.83 305.65 1734.76 246.4 1734.15 258.17"/><polygon class="cls-5" points="1730.12 335.49 1781.4 377.55 1787.34 370.3 1730.73 323.88 1730.12 335.49"/><polygon class="cls-5" points="1640.18 242 1738.57 173.05 1739.15 162.33 1738.61 161.58 1634.8 234.32 1640.18 242"/><polygon class="cls-5" points="1734.78 245.79 1658.11 298 1663.4 305.75 1734.2 257.54 1734.78 245.79"/><polygon class="cls-5" points="1673.94 371.97 1730.17 334.9 1730.71 324.26 1730.3 323.61 1668.8 364.17 1673.94 371.97"/><polygon class="cls-5" points="1727.17 448.77 1744.68 115.17 1735.3 114.72 1717.44 455.59 1727.17 448.77"/></g><g class="cls-3"><path class="cls-6" d="M1495.75,480a251.5,251.5,0,0,0,50.32,39.13,18.3,18.3,0,0,1,32.63,16.44c71.63,30,138.77,21.91,144.66,21.1l.14.19v-.22h.22l-.17-.16c2.22-8,34.92-131.56-44.38-236.05,0,0-62.06-85-135.47-62.85a15.39,15.39,0,0,1,.64,1.44,18.46,18.46,0,0,1-33.16,15.61,147.47,147.47,0,0,0-18.41,16.65C1382,369.8,1495.75,480,1495.75,480Zm223.26,3.3a6.13,6.13,0,1,1,3.91-7.74h0a6.11,6.11,0,0,1-3.88,7.72Zm-42.18-128.56a10.72,10.72,0,1,1-6.84,13.53v0A10.72,10.72,0,0,1,1676.83,354.71ZM1476.57,393a6.13,6.13,0,1,1-3.91,7.74v0a6.1,6.1,0,0,1,3.88-7.71Z"/><polygon class="cls-5" points="1533.51 338.24 1511.5 451.55 1502.6 449.81 1525.96 329.55 1533.51 338.24"/><polygon class="cls-5" points="1587.29 400.09 1570.6 480.4 1561.71 478.54 1579.82 391.49 1587.29 400.09"/><polygon class="cls-5" points="1636.54 456.71 1622.53 519.45 1613.67 517.47 1629.15 448.23 1636.54 456.71"/><polygon class="cls-5" points="1649.37 331.64 1533.09 337.79 1526.26 329.93 1526.22 329.04 1648.87 322.58 1649.37 331.64"/><polygon class="cls-5" points="1579.43 391.04 1669.12 385.11 1669.72 394.17 1586.9 399.64 1579.43 391.04"/><polygon class="cls-5" points="1701.22 451.01 1636.18 456.28 1629.39 448.51 1629.31 447.75 1700.48 441.98 1701.22 451.01"/><polygon class="cls-5" points="1706.44 541.42 1493.89 297.25 1500.75 291.29 1717.95 540.84 1706.44 541.42"/></g><g class="cls-3"><path class="cls-7" d="M1887.17,357.94a117.37,117.37,0,0,0,19,23.08,8.55,8.55,0,0,1,5.44-2.71,8.6,8.6,0,0,1,7.82,13.61c29.73,21.12,61.33,24.33,64.12,24.58v.1l0-.09h.1v-.1c1.85-3.43,29.57-56.71,4-112.75,0,0-19.67-45.36-55.6-42.76,0,.24.12.46.14.71a8.69,8.69,0,0,1-7.8,9.49h0a8.68,8.68,0,0,1-9-5.75,70.44,70.44,0,0,0-10.16,5.73C1846.4,295.71,1887.17,357.94,1887.17,357.94Zm102,24.51a2.88,2.88,0,1,1,2.58-3.14v.06A2.89,2.89,0,0,1,1989.15,382.45Zm-6.08-63.27a5,5,0,1,1-4.54,5.5A5,5,0,0,1,1983.07,319.18Zm-95.74-3.09a2.88,2.88,0,1,1-2.59,3.14,2.89,2.89,0,0,1,2.59-3.14Z"/><polygon class="cls-7" points="1906.62 276.91 1880.92 229.17 1884.68 227.15 1911.96 277.83 1906.62 276.91"/><polygon class="cls-5" points="1919.08 296.87 1897.31 346.54 1893.41 344.83 1916.51 292.11 1919.08 296.87"/><polygon class="cls-5" points="1937.35 330.77 1921.42 365.85 1917.54 364.08 1934.81 326.05 1937.35 330.77"/><polygon class="cls-5" points="1972.86 305.8 1918.93 296.62 1916.61 292.32 1916.69 291.9 1973.57 301.59 1972.86 305.8"/><polygon class="cls-5" points="1977.39 407.82 1905.14 274 1908.9 271.98 1982.73 408.74 1977.39 407.82"/><path class="cls-4" d="M1343.89,275.91a158.35,158.35,0,0,0-35.27,19.33,11.55,11.55,0,0,1-17.7,14.78c-35.32,34-47.45,74.9-48.47,78.51l-.14.07.11.09,0,.13.14-.07c4.06,3.28,67.45,53.18,147.83,33.42,0,0,64.79-14.63,70.35-62.71-.33,0-.65,0-1,0a11.65,11.65,0,0,1-.73-23.12,96.06,96.06,0,0,0-5.07-14.83C1436.2,237.64,1343.89,275.91,1343.89,275.91ZM1286,404.36a3.87,3.87,0,1,1,3.5,4.2,3.87,3.87,0,0,1-3.5-4.2Zm85,7.78a6.77,6.77,0,1,1-6.13-7.36,6.76,6.76,0,0,1,6.13,7.36v0Zm28-125.59a3.87,3.87,0,1,1-3.58-4.14h.13a3.87,3.87,0,0,1,3.47,4.17Z"/><polygon class="cls-5" points="1416.52 333.29 1356.4 292.15 1359.63 287.43 1423.45 331.09 1416.52 333.29"/><polygon class="cls-5" points="1367.22 348.95 1324.89 319.15 1328.18 314.46 1374.08 346.77 1367.22 348.95"/><polygon class="cls-5" points="1322.08 363.29 1289.26 339.45 1292.61 334.82 1328.85 361.13 1322.08 363.29"/><polygon class="cls-5" points="1391.32 402.05 1416.9 333.15 1423.15 331.17 1423.67 331.38 1396.68 404.04 1391.32 402.05"/><polygon class="cls-5" points="1374.44 346.66 1355.4 400.11 1350 398.18 1367.59 348.83 1374.44 346.66"/><polygon class="cls-5" points="1309.18 402.17 1322.42 363.17 1328.63 361.19 1329.08 361.35 1314.6 404.01 1309.18 402.17"/><polygon class="cls-5" points="1255.49 382.55 1450.2 320.61 1451.92 326.07 1252.96 389.37 1255.49 382.55"/><path class="cls-9" d="M2015.85,279.4a114,114,0,0,0,21.1-19.72,8.29,8.29,0,0,1,9.68-13.44c18.53-30,19.69-60.59,19.75-63.28l.09-.06-.1,0,0-.09-.09.06c-3.42-1.57-56.43-25-108.86,3.08,0,0-42.49,21.74-37.79,56.19.23-.06.45-.14.68-.18a8.37,8.37,0,0,1,4.64,15.88,67.22,67.22,0,0,0,6.15,9.43C1958.42,322.49,2015.85,279.4,2015.85,279.4Zm17.37-99.75a2.78,2.78,0,1,1-3.18-2.3h0A2.79,2.79,0,0,1,2033.22,179.65Zm-60.58,9.74a4.85,4.85,0,1,1,5.57,4,4.85,4.85,0,0,1-5.57-4v0Zm2.89,92.42a2.78,2.78,0,1,1,3.2,2.3A2.77,2.77,0,0,1,1975.53,281.81Z"/></g><g class="cls-3"><polygon class="cls-11" points="1366.17 581.26 1430.12 443.71 1440.93 448.74 1373.06 594.74 1366.17 581.26"/><path class="cls-9" d="M1346.52,542.9a259.36,259.36,0,0,0,16,63.77,18.89,18.89,0,0,1,16,34.13,311.72,311.72,0,0,0,104.15,109.12l0,.25.15-.16.16.16,0-.26c6.82-5,112.1-84.77,114-220,0,0,3.64-108.54-70.11-137.21-.14.53-.21,1-.39,1.58a19,19,0,0,1-36.87-8.42,156.09,156.09,0,0,0-25.55,1.83C1324.16,381.06,1346.52,542.9,1346.52,542.9Zm179.35,144.63a6.28,6.28,0,1,1,8.05-3.74A6.34,6.34,0,0,1,1525.87,687.53Zm47.47-131.31a11.08,11.08,0,1,1-14.14,6.67,11.12,11.12,0,0,1,14.14-6.67ZM1386.24,460a6.29,6.29,0,1,1-8.07,3.75,6.34,6.34,0,0,1,8.07-3.75Z"/><polygon class="cls-9" points="1461.39 400.38 1455.32 281.44 1464.66 280.98 1471.12 407.21 1461.39 400.38"/><polygon class="cls-5" points="1467.33 451.71 1377.39 529.82 1371.26 522.76 1466.7 439.85 1467.33 451.71"/><polygon class="cls-5" points="1471.7 536.2 1407.08 590.81 1401.03 583.68 1471.1 524.43 1471.7 536.2"/><polygon class="cls-5" points="1475.73 613.52 1424.45 655.58 1418.52 648.33 1475.13 601.91 1475.73 613.52"/><polygon class="cls-5" points="1565.68 520.03 1467.28 451.08 1466.7 440.36 1467.25 439.61 1571.05 512.35 1565.68 520.03"/><polygon class="cls-5" points="1471.08 523.82 1547.75 576.03 1542.45 583.78 1471.66 535.57 1471.08 523.82"/><polygon class="cls-5" points="1531.91 650 1475.69 612.93 1475.15 602.29 1475.56 601.64 1537.05 642.2 1531.91 650"/><polygon class="cls-5" points="1478.69 726.8 1461.18 393.2 1470.56 392.75 1488.42 733.62 1478.69 726.8"/></g></g></g></svg>