<svg xmlns="http://www.w3.org/2000/svg" xmlns:xlink="http://www.w3.org/1999/xlink" viewBox="0 0 2048 2732"><defs><style>.cls-1{isolation:isolate;}.cls-2{fill:url(#linear-gradient);}.cls-3{mix-blend-mode:soft-light;}.cls-4{fill:#639a3f;}.cls-5{fill:#015f54;}.cls-6{fill:#014c59;}.cls-7{fill:#0086a6;}.cls-8{fill:#007459;}.cls-9{fill:#0c5347;}.cls-10{fill:#4d9958;}.cls-11{fill:#006f8a;}.cls-12{opacity:0.32;}</style><linearGradient id="linear-gradient" x1="438.88" y1="3124.98" x2="1623.38" y2="-508.91" gradientUnits="userSpaceOnUse"><stop offset="0.05" stop-color="#639a3f"/><stop offset="1" stop-color="#0c5347"/></linearGradient></defs><g class="cls-1"><g id="Layer_1" data-name="Layer 1"><rect class="cls-2" x="-25.8" y="0.77" width="2074.2" height="2736.18"/><g class="cls-3"><path class="cls-4" d="M1061.13,243.47a436.08,436.08,0,0,0,12.74,109.83,31.76,31.76,0,0,1,19.35,60.37c50,125.08,141.68,198.31,149.8,204.65l0,.41.34-.18.29.23,0-.41c12.58-7,205.23-116.79,238.06-341.95,0,0,29.73-180.13-87-244-.29.86-.62,1.7-1,2.53a32,32,0,0,1-59.63-22.07,263.26,263.26,0,0,0-43-2.42C1059.16-31.22,1061.13,243.47,1061.13,243.47ZM1328.4,523.74a48.06,48.06,0,1,1,.13,0Zm107.78-208.56a24.55,24.55,0,1,1,0-.06l.08,0ZM1145.28,114a10.63,10.63,0,1,1-14.24,4.84c0-.1.1-.2.16-.3a10.65,10.65,0,0,1,14.21-4.55Z"/><polygon class="cls-5" points="1282.4 117.83 1115.42 228.41 1106.76 215.29 1283.96 97.9 1282.4 117.83"/><polygon class="cls-5" points="1271.29 259.6 1151.6 336.59 1143.08 323.35 1272.85 239.88 1271.29 259.6"/><polygon class="cls-5" points="1261.12 389.41 1166.46 448.34 1158.13 434.99 1262.63 369.92 1261.12 389.41"/><polygon class="cls-5" points="1431.46 253.15 1282.45 116.73 1283.86 98.78 1284.92 97.65 1442.07 241.54 1431.46 253.15"/><polygon class="cls-5" points="1272.93 238.85 1389.34 342.63 1378.85 354.37 1271.36 258.55 1272.93 238.85"/><polygon class="cls-5" points="1346.8 462.48 1261.17 388.41 1262.55 370.53 1263.42 369.56 1357.08 450.57 1346.8 462.48"/><polygon class="cls-5" points="1241.3 578.9 1284.93 18.94 1300.63 20.23 1256.03 592.41 1241.3 578.9"/></g><g class="cls-3"><path class="cls-6" d="M973.83,37.42a280.19,280.19,0,0,0-29.29,64.46,20.35,20.35,0,0,1-9.34,39.52c-13.89,85.12,12.19,155.6,14.56,161.74l-.17.23a1.45,1.45,0,0,0,.22-.09l.08.23.16-.2c9.22.32,151.15,3.76,243.57-108.9,0,0,75.84-89,32.93-162.62a14.55,14.55,0,0,1-1.39,1.06,20.5,20.5,0,0,1-25.48-31.69,168.11,168.11,0,0,0-22.76-15.59C1063.51-113.9,973.83,37.42,973.83,37.42Zm54.12,242a5,5,0,1,1,0,.21.22.22,0,0,0,0-.08Zm128-78.77a8.44,8.44,0,1,0,0,.13ZM1062.92-5.68a6.8,6.8,0,0,1-2.27,9.34,6.79,6.79,0,0,1-9.34-2.26,6.8,6.8,0,0,1,2.23-9.33,6.8,6.8,0,0,1,9.36,2.22Z"/><polygon class="cls-5" points="1136.73 41.63 1008.6 47.11 1008.18 37.04 1144.17 31.22 1136.73 41.63"/><polygon class="cls-5" points="1083.79 115.71 992.71 118.39 992.4 108.31 1091.16 105.42 1083.79 115.71"/><polygon class="cls-5" points="1035.32 183.55 963.91 184.61 963.77 174.54 1042.6 173.36 1035.32 183.55"/><polygon class="cls-5" points="1173.78 165.1 1137.13 41.05 1143.83 31.66 1144.8 31.38 1183.43 162.24 1173.78 165.1"/><polygon class="cls-5" points="1091.55 104.87 1121.12 200.27 1111.49 203.25 1084.18 115.16 1091.55 104.87"/><polygon class="cls-5" points="1058.16 251.95 1035.68 183.03 1042.36 173.7 1043.15 173.43 1067.76 248.81 1058.16 251.95"/><polygon class="cls-5" points="961.83 280.95 1170.8 -11.77 1178.99 -5.9 965.45 293.24 961.83 280.95"/></g><g class="cls-3"><path class="cls-7" d="M2.34,433.84a433.69,433.69,0,0,0,86.93,67.59,31.61,31.61,0,0,1,56.36,28.41c123.72,51.78,239.69,37.84,249.86,36.44l.25.33v-.37h.37l-.29-.28c3.84-13.78,60.32-227.24-76.65-407.71,0,0-107.2-146.85-234-108.58.41.81.77,1.64,1.1,2.49A31.9,31.9,0,0,1,29,79.11,256.65,256.65,0,0,0-2.81,107.87C-194.09,243.56,2.34,433.84,2.34,433.84ZM388,439.55a10.59,10.59,0,1,1,6.74-13.38v0a10.54,10.54,0,0,1-6.7,13.32ZM315.12,217.49a18.52,18.52,0,1,1-11.82,23.37v0A18.52,18.52,0,0,1,315.12,217.49ZM-30.79,283.54a10.6,10.6,0,0,1,13.38,6.75,10.59,10.59,0,0,1-6.75,13.37,10.59,10.59,0,0,1-13.37-6.74v0a10.55,10.55,0,0,1,6.71-13.32Z"/><polygon class="cls-5" points="67.56 189.04 29.56 384.76 14.17 381.76 54.53 174.02 67.56 189.04"/><polygon class="cls-5" points="160.47 295.88 131.63 434.59 116.28 431.38 147.56 281.02 160.47 295.88"/><polygon class="cls-5" points="245.53 393.67 221.34 502.04 206.03 498.62 232.76 379.02 245.53 393.67"/><polygon class="cls-5" points="267.69 177.64 66.85 188.26 55.04 174.68 54.98 173.15 266.83 161.99 267.69 177.64"/><polygon class="cls-5" points="146.89 280.24 301.81 270 302.84 285.64 159.79 295.09 146.89 280.24"/><polygon class="cls-5" points="357.26 383.83 244.91 392.93 233.18 379.52 233.04 378.19 355.98 368.23 357.26 383.83"/><polygon class="cls-5" points="366.26 540 -0.86 118.24 10.98 107.94 386.15 538.98 366.26 540"/></g><g class="cls-3"><path class="cls-8" d="M581.24,525.7a353.34,353.34,0,0,0,57,69.2A25.78,25.78,0,0,1,678,627.58c89.15,63.32,183.88,72.94,192.23,73.69v.3l.14-.27.3,0V701c5.55-10.27,88.64-170,11.94-338,0,0-59-136-166.67-128.19,0,.71.35,1.38.41,2.12A26,26,0,0,1,693,265.37h0a26,26,0,0,1-27-17.23,213,213,0,0,0-30.45,17.18C459,339.17,581.24,525.7,581.24,525.7ZM887,599.19a8.63,8.63,0,1,1,7.75-9.42c0,.07,0,.13,0,.2A8.64,8.64,0,0,1,887,599.19ZM868.74,409.51A15.09,15.09,0,1,1,855.12,426,15.09,15.09,0,0,1,868.74,409.51Zm-287-9.27a8.63,8.63,0,1,1-7.76,9.43,8.67,8.67,0,0,1,7.76-9.43Z"/><polygon class="cls-8" points="639.57 282.8 562.51 139.68 573.79 133.63 655.55 285.55 639.57 282.8"/><polygon class="cls-5" points="676.91 342.64 611.64 491.55 599.96 486.4 669.19 328.37 676.91 342.64"/><polygon class="cls-5" points="731.69 444.26 683.92 549.42 672.29 544.12 724.07 430.1 731.69 444.26"/><polygon class="cls-5" points="785.95 537.79 747.31 619.66 735.76 614.18 778.42 523.84 785.95 537.79"/><polygon class="cls-5" points="838.13 369.4 676.47 341.89 669.51 329.01 669.73 327.75 840.26 356.79 838.13 369.4"/><polygon class="cls-5" points="723.68 429.37 848.75 448.95 846.77 461.58 731.27 443.51 723.68 429.37"/><polygon class="cls-5" points="876.55 549.95 785.57 537.1 778.65 524.3 778.79 523.26 878.33 537.3 876.55 549.95"/><polygon class="cls-5" points="851.72 675.24 635.12 274.08 646.4 268.02 867.71 677.99 851.72 675.24"/><path class="cls-4" d="M400.61-25.53A475.41,475.41,0,0,0,294.87,32.41a34.64,34.64,0,0,1-53.06,44.32C135.94,178.59,99.57,301.27,96.5,312.07l-.39.22.31.28-.1.38.39-.22c12.19,9.86,202.22,159.44,443.2,100.21,0,0,194.21-43.88,210.89-188a26.4,26.4,0,0,1-2.95,0,34.92,34.92,0,0,1-2.18-69.31,285.94,285.94,0,0,0-15.21-44.45C677.36-140.25,400.61-25.53,400.61-25.53ZM227.1,359.53a49.16,49.16,0,1,1,.07.12Zm255,23.32a31.68,31.68,0,1,1,.07,0V383ZM566,6.35A11.6,11.6,0,1,1,555.25-6l.37,0A11.63,11.63,0,0,1,566.05,6.47Z"/><polygon class="cls-5" points="618.36 146.48 438.11 23.14 447.81 9 639.14 139.88 618.36 146.48"/><polygon class="cls-5" points="470.56 193.43 343.65 104.09 353.53 90.05 491.12 186.91 470.56 193.43"/><polygon class="cls-5" points="335.22 236.42 236.83 164.96 246.9 151.07 355.53 229.95 335.22 236.42"/><polygon class="cls-5" points="542.8 352.62 619.49 146.08 638.21 140.14 639.78 140.75 558.88 358.58 542.8 352.62"/><polygon class="cls-5" points="492.19 186.57 435.11 346.79 418.94 341.01 471.65 193.07 492.19 186.57"/><polygon class="cls-5" points="296.55 352.98 336.25 236.07 354.88 230.12 356.22 230.6 312.8 358.49 296.55 352.98"/><polygon class="cls-5" points="135.62 294.16 719.32 108.46 724.46 124.85 128.02 314.58 135.62 294.16"/><path class="cls-9" d="M967,290.27a342.37,342.37,0,0,0,63.25-59.14,24.86,24.86,0,0,1,29-40.27c55.53-89.78,59-181.65,59.19-189.71l.27-.18-.29-.08.08-.28-.27.17C1108-3.91,949.1-74.14,791.93,10c0,0-127.36,65.18-113.27,168.45.68-.17,1.34-.43,2-.54a25.1,25.1,0,0,1,13.89,47.61A202.59,202.59,0,0,0,713,253.81C794.84,419.44,967,290.27,967,290.27Zm52.07-299a8.31,8.31,0,0,1-6.88,9.54,8.32,8.32,0,0,1-9.55-6.88,8.32,8.32,0,0,1,6.89-9.54h0A8.36,8.36,0,0,1,1019.09-8.78ZM837.48,20.43a14.55,14.55,0,1,1,16.69,12.1,14.55,14.55,0,0,1-16.69-12.1v0Zm8.67,277.05a8.33,8.33,0,1,1,9.57,6.89A8.32,8.32,0,0,1,846.15,297.48Z"/><polygon class="cls-5" points="784.8 209.34 932.24 263.04 928 274.64 771.51 217.63 784.8 209.34"/><polygon class="cls-5" points="879.31 150.34 983.57 189.88 979.18 201.43 866.17 158.5 879.31 150.34"/><polygon class="cls-5" points="965.84 96.29 1047.07 128.48 1042.53 139.96 952.86 104.39 965.84 96.29"/><polygon class="cls-5" points="800.66 52.37 784.09 209.8 772.11 217.3 770.9 217.15 788.39 51.11 800.66 52.37"/><polygon class="cls-5" points="971.98 8.25 965.17 96.68 953.29 104.15 952.26 104.05 959.69 7.29 971.98 8.25"/><polygon class="cls-5" points="1094.49 20.52 721.33 253.78 714.8 243.3 1096.12 4.94 1094.49 20.52"/></g><path class="cls-10" d="M1712.15,598.37a218.06,218.06,0,0,0,50.91,23.22,16.08,16.08,0,0,1,31.23,7.43,264.41,264.41,0,0,0,127.82-11.28l.22.09h0c.3-7.25,3.11-119.42-85.79-192.59,0,0-70.24-60-128.43-26.19.35.15.59.67.83,1.09a16.2,16.2,0,0,1-25.16,20,133.65,133.65,0,0,0-12.34,18C1592.67,527.32,1712.15,598.37,1712.15,598.37Zm191.35-42.43a5.36,5.36,0,1,1,.28-.17A2.61,2.61,0,0,1,1903.5,555.94Zm-62.09-101.29a9.61,9.61,0,1,1-2.91,13.28,3.79,3.79,0,0,1-.2-.34A9.6,9.6,0,0,1,1841.41,454.65ZM1678.13,528a5.75,5.75,0,1,1-.07,0Z"/><polygon class="cls-10" points="1678.37 446.37 1596.07 387.29 1600.73 380.82 1688.07 443.53 1678.37 446.37"/><polygon class="cls-5" points="1715.64 469.68 1719.84 570.91 1711.89 571.26 1707.44 463.8 1715.64 469.68"/><polygon class="cls-5" points="1774.14 511.61 1776.17 583.59 1768.18 583.82 1766.04 505.77 1774.14 511.61"/><polygon class="cls-5" points="1827.68 549.99 1828.46 606.41 1820.48 606.48 1819.65 544.23 1827.68 549.99"/><polygon class="cls-5" points="1813.26 440.54 1715.19 469.39 1707.8 464.06 1707.61 463.3 1811.04 432.94 1813.26 440.54"/><polygon class="cls-5" points="1765.59 505.47 1841.01 482.21 1843.34 489.8 1773.69 511.31 1765.59 505.47"/><polygon class="cls-5" points="1881.79 531.99 1827.28 549.71 1819.94 544.4 1819.68 543.77 1879.29 524.43 1881.79 531.99"/><polygon class="cls-5" points="1904.58 608.15 1673.51 442.71 1678.18 436.24 1914.28 605.31 1904.58 608.15"/><g class="cls-3"><polygon class="cls-11" points="1805.95 376.86 1916.42 139.28 1935.08 147.96 1817.85 400.15 1805.95 376.86"/><path class="cls-9" d="M1772,310.6a448.83,448.83,0,0,0,27.65,110.16,32.63,32.63,0,0,1,27.73,58.94,538.21,538.21,0,0,0,179.89,188.48l0,.44.27-.27.28.27,0-.44c11.79-8.62,193.63-146.44,196.88-380,0,0,6.29-187.49-121.11-237-.23.92-.36,1.81-.66,2.73a32.9,32.9,0,0,1-63.69-14.53,267.21,267.21,0,0,0-44.13,3.15C1733.39,31.05,1772,310.6,1772,310.6Zm309.78,249.81A10.85,10.85,0,1,1,2095.7,554,11,11,0,0,1,2081.79,560.41Zm82-226.81a19.14,19.14,0,1,1-24.42,11.53,19.22,19.22,0,0,1,24.42-11.53ZM1840.62,167.42a10.87,10.87,0,1,1-13.94,6.49,11,11,0,0,1,13.94-6.49Z"/><polygon class="cls-9" points="1970.42 64.44 1959.94 -141.02 1976.08 -141.81 1987.23 76.22 1970.42 64.44"/><polygon class="cls-5" points="1980.68 153.09 1825.33 288 1814.74 275.81 1979.6 132.6 1980.68 153.09"/><polygon class="cls-5" points="1988.24 299.02 1876.62 393.36 1866.16 381.04 1987.19 278.7 1988.24 299.02"/><polygon class="cls-5" points="1995.2 432.58 1906.62 505.24 1896.37 492.71 1994.15 412.54 1995.2 432.58"/><polygon class="cls-5" points="2150.56 271.1 1980.6 152 1979.6 133.48 1980.55 132.19 2159.84 257.83 2150.56 271.1"/><polygon class="cls-5" points="1987.15 277.65 2119.59 367.82 2110.45 381.22 1988.16 297.93 1987.15 277.65"/><polygon class="cls-5" points="2092.24 495.59 1995.12 431.56 1994.19 413.18 1994.9 412.06 2101.11 482.13 2092.24 495.59"/><polygon class="cls-5" points="2000.3 628.24 1970.06 52.03 1986.26 51.24 2017.11 640.03 2000.3 628.24"/></g><g class="cls-3"><path class="cls-9" d="M-255.42,542.55a449.28,449.28,0,0,0,27.65,110.16,32.44,32.44,0,0,1,23.08-.41,32.77,32.77,0,0,1,19.66,42,32.47,32.47,0,0,1-15,17.4A538.38,538.38,0,0,0-20.15,900.13l0,.44.28-.27.27.27,0-.45c11.79-8.61,193.63-146.43,196.89-380,0,0,6.28-187.49-121.11-237-.24.92-.37,1.8-.67,2.72A32.9,32.9,0,0,1-8.19,271.28a268.31,268.31,0,0,0-44.13,3.16C-294,263-255.42,542.55-255.42,542.55ZM54.36,792.36a10.85,10.85,0,1,1,13.91-6.45A11,11,0,0,1,54.36,792.36Zm82-226.81a19.13,19.13,0,1,1-24.42,11.53,19.22,19.22,0,0,1,24.42-11.53ZM-186.81,399.37a11,11,0,0,1,6.49,13.94,11,11,0,0,1-13.94,6.48,10.92,10.92,0,0,1-6.49-13.94,10.91,10.91,0,0,1,13.94-6.48Z"/><polygon class="cls-5" points="123.13 503.04 -46.83 383.95 -47.83 365.43 -46.88 364.14 132.41 489.78 123.13 503.04"/><polygon class="cls-5" points="-40.27 509.6 92.17 599.77 83.02 613.17 -39.26 529.88 -40.27 509.6"/><polygon class="cls-5" points="64.81 727.54 -32.3 663.51 -33.24 645.13 -32.53 644 73.69 714.08 64.81 727.54"/></g><g class="cls-3"><path class="cls-8" d="M1436.9,151.2a623.38,623.38,0,0,0-100.2,122.49,45.49,45.49,0,0,1-42.91,80.05c-79,176.1-63.07,343.4-61.49,358.13l-.51.12.52.15.12.51.51-.13c19.69,6.09,324.77,95,589.25-95.5,0,0,215.12-148.81,164.63-332.6-1.22.29-2.27,1.08-3.54,1.43A46,46,0,0,1,1926,255.14v0a45.89,45.89,0,0,1,20.55-52.59,375.86,375.86,0,0,0-40.2-46.82C1717.83-124.49,1436.9,151.2,1436.9,151.2Zm-22.13,554.51a15.24,15.24,0,1,1,19,10.18l-.34.1A15.26,15.26,0,0,1,1414.77,705.71ZM1736.88,609a26.64,26.64,0,1,1-33.24-17.89A26.65,26.65,0,0,1,1736.88,609Zm-82.61-500a15.24,15.24,0,1,1-19-10.19,15.32,15.32,0,0,1,19,10.19Z"/><polygon class="cls-8" points="1877.46 168.68 2098.74 -13.91 2113.1 3.53 1878.2 197.3 1877.46 168.68"/><polygon class="cls-5" points="1786.7 253.9 1506.48 192.08 1511.37 170.09 1808.76 235.63 1786.7 253.9"/><polygon class="cls-5" points="1629.6 383.67 1431.14 337.11 1436.31 315.16 1651.5 365.6 1629.6 383.67"/><polygon class="cls-5" points="1486.34 509.75 1331.33 470.99 1336.84 449.12 1507.91 491.92 1486.34 509.75"/><polygon class="cls-5" points="1795.8 542.2 1787.85 252.87 1807.76 236.41 1810.01 236.35 1818.35 541.56 1795.8 542.2"/><polygon class="cls-5" points="1652.63 364.68 1661.73 587.92 1639.18 588.83 1630.77 382.69 1652.63 364.68"/><polygon class="cls-5" points="1496.43 670.78 1487.41 508.85 1507.18 492.47 1509.04 492.35 1518.94 669.5 1496.43 670.78"/><polygon class="cls-5" points="1270.99 670.85 1891.03 157.99 1905.39 175.44 1271.74 699.48 1270.99 670.85"/></g><g class="cls-3"><path class="cls-4" d="M1838.65,904a245.92,245.92,0,0,0,7.19,62,17.94,17.94,0,0,1,10.93,34.1c28.24,70.64,80,112,84.6,115.58l0,.23.19-.1.17.13,0-.23c7.1-3.93,115.9-66,134.44-193.12,0,0,16.79-101.74-49.11-137.83a14.43,14.43,0,0,1-.56,1.42,18.09,18.09,0,0,1-33.68-12.46,148.38,148.38,0,0,0-24.29-1.36C1837.53,748.83,1838.65,904,1838.65,904Zm150.94,158.28a25.44,25.44,0,1,1,.07,0Zm60.87-117.79a10.51,10.51,0,1,1-14.15,4.52,10.51,10.51,0,0,1,14.15-4.52l.05,0ZM1886.17,830.83a6,6,0,1,1-8,2.74l.09-.17a6,6,0,0,1,8-2.57Z"/><polygon class="cls-5" points="1963.61 833.01 1869.31 895.46 1864.41 888.05 1964.49 821.75 1963.61 833.01"/><polygon class="cls-5" points="1957.33 913.07 1889.74 956.56 1884.93 949.08 1958.21 901.93 1957.33 913.07"/><polygon class="cls-5" points="1951.59 986.39 1898.13 1019.67 1893.43 1012.13 1952.44 975.38 1951.59 986.39"/><polygon class="cls-5" points="2047.8 909.43 1963.64 832.39 1964.44 822.25 1965.04 821.61 2053.79 902.88 2047.8 909.43"/><polygon class="cls-5" points="1958.26 901.36 2024.01 959.97 2018.09 966.6 1957.38 912.48 1958.26 901.36"/><polygon class="cls-5" points="1999.98 1027.65 1951.62 985.82 1952.4 975.73 1952.89 975.18 2005.79 1020.93 1999.98 1027.65"/><polygon class="cls-5" points="1940.4 1093.41 1965.04 777.16 1973.91 777.88 1948.72 1101.04 1940.4 1093.41"/></g><g class="cls-3"><path class="cls-6" d="M242.67,1221.8a180.32,180.32,0,0,0-18.81,41.41,13.07,13.07,0,0,1-6,25.38c-8.92,54.68,7.83,100,9.36,103.9l-.11.14.14-.05.05.14.1-.13c5.92.21,97.09,2.41,156.45-69.95,0,0,48.71-57.16,21.16-104.45-.29.24-.58.47-.89.68a13.18,13.18,0,0,1-16.38-20.36,107.25,107.25,0,0,0-14.61-10C300.28,1124.6,242.67,1221.8,242.67,1221.8Zm34.77,155.42a3.22,3.22,0,1,1,0,.14l0-.06Zm82.24-50.6a5.43,5.43,0,1,0,0,.09Zm-59.78-132.5a4.37,4.37,0,1,1-6-1.45,4.37,4.37,0,0,1,6,1.45Z"/><polygon class="cls-5" points="347.31 1224.5 265.01 1228.02 264.74 1221.56 352.09 1217.82 347.31 1224.5"/><polygon class="cls-5" points="313.3 1272.09 254.81 1273.82 254.61 1267.34 318.04 1265.48 313.3 1272.09"/><polygon class="cls-5" points="282.17 1315.66 236.31 1316.35 236.21 1309.88 286.85 1309.12 282.17 1315.66"/><polygon class="cls-5" points="371.11 1303.82 347.57 1224.13 351.87 1218.1 352.49 1217.92 377.31 1301.98 371.11 1303.82"/><polygon class="cls-5" points="318.29 1265.13 337.28 1326.4 331.1 1328.32 313.55 1271.74 318.29 1265.13"/><polygon class="cls-5" points="296.84 1359.6 282.4 1315.33 286.69 1309.34 287.2 1309.17 303.01 1357.59 296.84 1359.6"/><polygon class="cls-5" points="234.97 1378.23 369.19 1190.21 374.45 1193.97 237.29 1386.12 234.97 1378.23"/></g><g class="cls-3"><path class="cls-7" d="M-10.42,988.39A433.69,433.69,0,0,0,76.51,1056a31.61,31.61,0,0,1,56.36,28.41c123.72,51.78,239.69,37.84,249.86,36.44l.25.33v-.37h.37l-.29-.29c3.84-13.77,60.32-227.24-76.65-407.71,0,0-107.19-146.84-234-108.57.41.81.77,1.64,1.1,2.49a31.9,31.9,0,0,1-57.28,27,255.86,255.86,0,0,0-31.81,28.76C-206.85,798.1-10.42,988.39-10.42,988.39Zm385.65,5.7A10.59,10.59,0,1,1,382,980.72v0a10.55,10.55,0,0,1-6.7,13.33ZM302.36,772a18.52,18.52,0,1,1-11.82,23.38v0A18.54,18.54,0,0,1,302.36,772ZM-43.55,838.09a10.6,10.6,0,0,1,13.38,6.75,10.59,10.59,0,0,1-6.75,13.37,10.59,10.59,0,0,1-13.37-6.74v0a10.55,10.55,0,0,1,6.71-13.32Z"/><polygon class="cls-5" points="54.8 743.59 16.8 939.31 1.41 936.31 41.77 728.57 54.8 743.59"/><polygon class="cls-5" points="147.71 850.42 118.87 989.14 103.52 985.93 134.8 835.57 147.71 850.42"/><polygon class="cls-5" points="232.78 948.22 208.58 1056.58 193.27 1053.17 220 933.57 232.78 948.22"/><polygon class="cls-5" points="254.93 732.18 54.09 742.81 42.28 729.23 42.23 727.7 254.07 716.53 254.93 732.18"/><polygon class="cls-5" points="134.13 834.78 289.05 824.54 290.08 840.19 147.03 849.64 134.13 834.78"/><polygon class="cls-5" points="344.5 938.38 232.15 947.48 220.42 934.07 220.28 932.74 343.22 922.78 344.5 938.38"/><polygon class="cls-5" points="353.5 1094.55 -13.62 672.79 -1.78 662.49 373.39 1093.53 353.5 1094.55"/></g><g class="cls-3"><path class="cls-8" d="M1443,1255.94a353.34,353.34,0,0,1-57,69.2,25.77,25.77,0,0,0-39.75,32.68c-89.16,63.32-183.88,72.94-192.24,73.69v.3l-.14-.28h-.3v-.29c-5.55-10.27-88.64-170-11.94-338,0,0,59-136,166.67-128.19,0,.72-.35,1.39-.41,2.13a26,26,0,0,0,23.39,28.45h0a26,26,0,0,0,27-17.23,212,212,0,0,1,30.45,17.18C1565.24,1069.4,1443,1255.94,1443,1255.94Zm-305.72,73.49a8.63,8.63,0,1,0-7.75-9.42c0,.06,0,.13,0,.2A8.65,8.65,0,0,0,1137.31,1329.43Zm18.22-189.68a15.09,15.09,0,1,0,13.62,16.5A15.09,15.09,0,0,0,1155.53,1139.75Zm287-9.27a8.63,8.63,0,1,0,7.75,9.43,8.68,8.68,0,0,0-7.75-9.43Z"/><polygon class="cls-8" points="1384.71 1013.04 1461.76 869.92 1450.48 863.86 1368.72 1015.79 1384.71 1013.04"/><polygon class="cls-5" points="1347.36 1072.88 1412.63 1221.78 1424.31 1216.64 1355.08 1058.61 1347.36 1072.88"/><polygon class="cls-5" points="1292.58 1174.5 1340.35 1279.65 1351.98 1274.36 1300.2 1160.34 1292.58 1174.5"/><polygon class="cls-5" points="1238.32 1268.03 1276.96 1349.9 1288.51 1344.42 1245.85 1254.07 1238.32 1268.03"/><polygon class="cls-5" points="1186.14 1099.64 1347.81 1072.13 1354.76 1059.25 1354.54 1057.99 1184.01 1087.03 1186.14 1099.64"/><polygon class="cls-5" points="1300.59 1159.61 1175.52 1179.19 1177.51 1191.82 1293 1173.75 1300.59 1159.61"/><polygon class="cls-5" points="1147.72 1280.19 1238.7 1267.33 1245.62 1254.54 1245.48 1253.49 1145.94 1267.54 1147.72 1280.19"/><polygon class="cls-5" points="1172.55 1405.48 1389.15 1004.32 1377.87 998.26 1156.56 1408.23 1172.55 1405.48"/><path class="cls-4" d="M1623.66,704.71a475.15,475.15,0,0,1,105.74,57.93A34.64,34.64,0,0,0,1782.46,807c105.87,101.86,142.25,224.53,145.31,235.34l.39.22-.31.27.11.39-.4-.22c-12.18,9.85-202.22,159.44-443.19,100.21,0,0-194.21-43.88-210.9-188a26.58,26.58,0,0,0,3,0,34.92,34.92,0,0,0,2.17-69.31,285.94,285.94,0,0,1,15.21-44.45C1346.91,590,1623.66,704.71,1623.66,704.71Zm173.51,385.06a49.16,49.16,0,1,0-.07.12Zm-255,23.32a24.36,24.36,0,1,0-.08,0v.1Zm-83.92-376.5a11.6,11.6,0,1,0,10.73-12.4l-.37,0a11.62,11.62,0,0,0-10.43,12.49Z"/><polygon class="cls-5" points="1405.91 876.72 1586.16 753.38 1576.46 739.24 1385.13 870.12 1405.91 876.72"/><polygon class="cls-5" points="1553.72 923.66 1680.62 834.33 1670.74 820.28 1533.15 917.15 1553.72 923.66"/><polygon class="cls-5" points="1689.05 966.66 1787.44 895.2 1777.37 881.31 1668.74 960.19 1689.05 966.66"/><polygon class="cls-5" points="1481.47 1082.86 1404.79 876.31 1386.06 870.38 1384.49 870.99 1465.39 1088.82 1481.47 1082.86"/><polygon class="cls-5" points="1532.08 916.81 1589.16 1077.02 1605.34 1071.25 1552.62 923.31 1532.08 916.81"/><polygon class="cls-5" points="1727.72 1083.21 1688.02 966.31 1669.39 960.36 1668.06 960.84 1711.47 1088.72 1727.72 1083.21"/><polygon class="cls-5" points="1888.65 1024.4 1304.95 838.7 1299.81 855.09 1896.25 1044.82 1888.65 1024.4"/><path class="cls-9" d="M1057.25,1020.51A342.69,342.69,0,0,1,994,961.37a24.86,24.86,0,0,0-29-40.28c-55.53-89.77-59-181.64-59.18-189.71l-.28-.17.29-.08-.08-.28.27.17c10.24-4.69,169.18-74.92,326.35,9.24,0,0,127.36,65.18,113.27,168.45-.68-.17-1.34-.43-2-.54a25.1,25.1,0,0,0-13.89,47.61,203.18,203.18,0,0,1-18.44,28.27C1229.43,1149.67,1057.25,1020.51,1057.25,1020.51Zm-52.07-299a8.32,8.32,0,1,0,9.54-6.89h0A8.36,8.36,0,0,0,1005.18,721.46Zm181.61,29.21a14.55,14.55,0,1,0-16.69,12.1,14.55,14.55,0,0,0,16.69-12.1v0Zm-8.67,277.05a8.32,8.32,0,1,0-9.57,6.89A8.32,8.32,0,0,0,1178.12,1027.72Z"/><polygon class="cls-5" points="1239.47 939.58 1092.03 993.28 1096.27 1004.87 1252.76 947.87 1239.47 939.58"/><polygon class="cls-5" points="1144.96 880.57 1040.7 920.11 1045.09 931.66 1158.1 888.74 1144.96 880.57"/><polygon class="cls-5" points="1058.43 826.52 977.21 858.72 981.75 870.2 1071.41 834.63 1058.43 826.52"/><polygon class="cls-5" points="1223.61 782.61 1240.18 940.04 1252.16 947.54 1253.38 947.39 1235.88 781.35 1223.61 782.61"/><polygon class="cls-5" points="1052.29 738.49 1059.1 826.92 1070.98 834.38 1072.02 834.29 1064.58 737.53 1052.29 738.49"/><polygon class="cls-5" points="929.78 750.76 1302.95 984.02 1309.47 973.54 928.15 735.18 929.78 750.76"/></g><path class="cls-10" d="M826.32,818.62A120.92,120.92,0,0,1,798,831.54a8.84,8.84,0,0,0-3.84-5,8.93,8.93,0,0,0-13.53,9.14,147.07,147.07,0,0,1-71.08-6.27l-.13.05h0c-.16-4-1.73-66.42,47.72-107.11,0,0,39.06-33.37,71.42-14.56-.19.08-.33.37-.46.6a9,9,0,0,0,14,11.15,74,74,0,0,1,6.86,10C892.77,779.11,826.32,818.62,826.32,818.62ZM719.91,795a3,3,0,1,0-.16-.1Zm34.53-56.33a5.35,5.35,0,1,0,1.62,7.38l.11-.18A5.35,5.35,0,0,0,754.44,738.7Zm90.8,40.79a3,3,0,0,0-3.13,5.1,3,3,0,0,0,4.12-1,3,3,0,0,0-1-4.08Z"/><polygon class="cls-10" points="845.11 734.09 890.88 701.24 888.29 697.64 839.72 732.51 845.11 734.09"/><polygon class="cls-5" points="824.38 747.06 822.05 803.35 826.47 803.54 828.94 743.79 824.38 747.06"/><polygon class="cls-5" points="791.85 770.37 790.72 810.41 795.17 810.53 796.36 767.12 791.85 770.37"/><polygon class="cls-5" points="762.07 791.72 761.64 823.1 766.08 823.14 766.54 788.51 762.07 791.72"/><polygon class="cls-5" points="770.09 730.85 824.63 746.89 828.74 743.93 828.85 743.51 771.33 726.63 770.09 730.85"/><polygon class="cls-5" points="796.61 766.96 754.66 754.02 753.37 758.25 792.1 770.21 796.61 766.96"/><polygon class="cls-5" points="731.98 781.71 762.3 791.56 766.38 788.61 766.52 788.26 733.37 777.5 731.98 781.71"/><polygon class="cls-5" points="719.31 824.06 847.81 732.06 845.22 728.46 713.92 822.49 719.31 824.06"/><g class="cls-3"><polygon class="cls-11" points="571.75 1051.91 682.21 814.33 700.87 823.01 583.64 1075.2 571.75 1051.91"/><path class="cls-9" d="M537.8,985.65a449.28,449.28,0,0,0,27.65,110.16,32.63,32.63,0,0,1,27.73,58.94,538.29,538.29,0,0,0,179.89,188.48l0,.44.27-.27.28.27,0-.44c11.79-8.62,193.63-146.44,196.89-380,0,0,6.28-187.49-121.11-237-.24.92-.37,1.81-.67,2.73A32.9,32.9,0,0,1,785,714.39a267.21,267.21,0,0,0-44.13,3.15C499.18,706.1,537.8,985.65,537.8,985.65Zm309.78,249.81a10.85,10.85,0,1,1,13.91-6.45A11,11,0,0,1,847.58,1235.46Zm82-226.81a19.14,19.14,0,1,1-24.42,11.53,19.22,19.22,0,0,1,24.42-11.53ZM606.41,842.47A10.87,10.87,0,1,1,592.47,849a11,11,0,0,1,13.94-6.49Z"/><polygon class="cls-9" points="736.21 739.49 725.73 534.03 741.87 533.24 753.02 751.27 736.21 739.49"/><polygon class="cls-5" points="746.47 828.14 591.12 963.05 580.53 950.86 745.39 807.65 746.47 828.14"/><polygon class="cls-5" points="754.03 974.07 642.41 1068.41 631.95 1056.09 752.99 953.75 754.03 974.07"/><polygon class="cls-5" points="760.99 1107.63 672.41 1180.29 662.16 1167.76 759.95 1087.59 760.99 1107.63"/><polygon class="cls-5" points="916.35 946.14 746.39 827.05 745.39 808.53 746.34 807.24 925.63 932.88 916.35 946.14"/><polygon class="cls-5" points="752.95 952.7 885.39 1042.87 876.24 1056.27 753.96 972.98 752.95 952.7"/><polygon class="cls-5" points="858.03 1170.64 760.92 1106.61 759.98 1088.23 760.69 1087.11 866.91 1157.18 858.03 1170.64"/><polygon class="cls-5" points="766.09 1303.29 735.85 727.08 752.05 726.29 782.9 1315.08 766.09 1303.29"/></g><g class="cls-3"><polygon class="cls-11" points="811.94 686.82 922.4 449.24 941.07 457.93 823.84 710.12 811.94 686.82"/><path class="cls-9" d="M778,620.57a448.38,448.38,0,0,0,27.65,110.16,32.41,32.41,0,0,1,23.07-.41,32.61,32.61,0,0,1,4.66,59.35,538.35,538.35,0,0,0,179.88,188.48l0,.44.27-.28.27.27,0-.44c11.78-8.61,193.62-146.43,196.88-380,0,0,6.29-187.49-121.11-237-.23.92-.36,1.8-.67,2.72a32.9,32.9,0,0,1-63.68-14.53,268.23,268.23,0,0,0-44.13,3.16C739.38,341,778,620.57,778,620.57Zm309.78,249.81a10.85,10.85,0,1,1,13.9-6.45A11,11,0,0,1,1087.78,870.38Zm82-226.81a19.13,19.13,0,1,1-24.41,11.53,19.23,19.23,0,0,1,24.41-11.53ZM846.61,477.39a10.87,10.87,0,1,1-13.94,6.48,11,11,0,0,1,13.94-6.48Z"/><polygon class="cls-9" points="976.4 374.4 965.92 168.94 982.06 168.16 993.21 386.19 976.4 374.4"/><polygon class="cls-5" points="986.66 463.06 831.32 597.97 820.73 585.78 985.58 442.57 986.66 463.06"/><polygon class="cls-5" points="994.22 608.99 882.6 703.33 872.15 691 993.18 588.67 994.22 608.99"/><polygon class="cls-5" points="1001.18 742.55 912.61 815.2 902.36 802.67 1000.14 722.5 1001.18 742.55"/><polygon class="cls-5" points="1156.54 581.06 986.59 461.97 985.59 443.45 986.53 442.16 1165.83 567.8 1156.54 581.06"/><polygon class="cls-5" points="993.14 587.62 1125.58 677.79 1116.43 691.18 994.15 607.9 993.14 587.62"/><polygon class="cls-5" points="1098.22 805.56 1001.11 741.53 1000.18 723.15 1000.89 722.02 1107.1 792.1 1098.22 805.56"/><polygon class="cls-5" points="1006.28 938.21 976.04 362 992.25 361.21 1023.09 950 1006.28 938.21"/></g><g class="cls-3"><path class="cls-8" d="M273.9,530.48A623,623,0,0,0,173.7,653a45.49,45.49,0,0,1-42.91,80c-79,176.1-63.07,343.4-61.49,358.13l-.51.12.52.15.12.51.51-.12c19.68,6.08,324.77,95,589.25-95.51,0,0,215.12-148.8,164.63-332.6-1.22.29-2.28,1.08-3.54,1.44A46,46,0,0,1,763,634.42l0,0a45.93,45.93,0,0,1,20.56-52.6A375,375,0,0,0,743.34,535C554.82,254.78,273.9,530.48,273.9,530.48ZM251.77,1085a15.24,15.24,0,1,1,19,10.18l-.34.09A15.26,15.26,0,0,1,251.77,1085Zm322.11-96.74a26.64,26.64,0,1,1-33.24-17.9A26.65,26.65,0,0,1,573.88,988.25Zm-82.61-500a15.24,15.24,0,1,1-19-10.19,15.32,15.32,0,0,1,19,10.19Z"/><polygon class="cls-8" points="714.45 547.95 935.74 365.36 950.1 382.81 715.2 576.58 714.45 547.95"/><polygon class="cls-5" points="623.69 633.17 343.48 571.35 348.37 549.37 645.76 614.9 623.69 633.17"/><polygon class="cls-5" points="466.6 762.94 268.14 716.38 273.31 694.43 488.5 744.87 466.6 762.94"/><polygon class="cls-5" points="323.33 889.02 168.33 850.26 173.84 828.4 344.91 871.19 323.33 889.02"/><polygon class="cls-5" points="632.79 921.47 624.85 632.14 644.76 615.68 647.01 615.63 655.35 920.83 632.79 921.47"/><polygon class="cls-5" points="489.63 743.95 498.73 967.2 476.18 968.11 467.77 761.96 489.63 743.95"/><polygon class="cls-5" points="333.43 1050.05 324.41 888.12 344.18 871.75 346.04 871.62 355.94 1048.78 333.43 1050.05"/><polygon class="cls-5" points="107.99 1050.13 728.03 537.26 742.39 554.71 108.73 1078.75 107.99 1050.13"/></g><g class="cls-12"><g class="cls-3"><path class="cls-4" d="M891.45,1247.83a436.08,436.08,0,0,1-12.74,109.83A31.76,31.76,0,0,0,859.37,1418c-50,125.08-141.68,198.32-149.8,204.65l-.06.41-.34-.18-.29.23,0-.41c-12.57-7-205.22-116.79-238-342,0,0-29.73-180.13,87-244a26.76,26.76,0,0,0,1,2.52,32,32,0,0,0,59.64-22.07,262,262,0,0,1,43-2.41C893.42,973.14,891.45,1247.83,891.45,1247.83ZM624.19,1528.1a48.06,48.06,0,1,0-.13,0ZM516.4,1319.54a24.55,24.55,0,1,0,0-.06l-.08,0Zm290.91-201.19a10.63,10.63,0,1,0,14.23,4.83l-.15-.3a10.66,10.66,0,0,0-14.21-4.55Z"/><polygon class="cls-5" points="670.18 1122.2 837.16 1232.77 845.83 1219.65 668.62 1102.27 670.18 1122.2"/><polygon class="cls-5" points="681.3 1263.96 800.98 1340.95 809.51 1327.71 679.74 1244.24 681.3 1263.96"/><polygon class="cls-5" points="691.47 1393.77 786.13 1452.7 794.45 1439.36 689.96 1374.29 691.47 1393.77"/><polygon class="cls-5" points="521.12 1257.51 670.14 1121.1 668.72 1103.14 667.66 1102.02 510.51 1245.9 521.12 1257.51"/><polygon class="cls-5" points="679.66 1243.21 563.24 1346.99 573.73 1358.74 681.22 1262.91 679.66 1243.21"/><polygon class="cls-5" points="605.79 1466.84 691.41 1392.77 690.03 1374.89 689.17 1373.93 595.5 1454.94 605.79 1466.84"/><polygon class="cls-5" points="711.29 1583.27 667.65 1023.31 651.95 1024.59 696.55 1596.77 711.29 1583.27"/></g><g class="cls-3"><path class="cls-6" d="M978.76,1041.78a279.74,279.74,0,0,1,29.28,64.46,20.35,20.35,0,0,0,9.34,39.52c13.89,85.13-12.18,155.6-14.56,161.75l.17.22-.22-.08-.08.22-.16-.2c-9.22.33-151.15,3.76-243.57-108.9,0,0-75.83-89-32.93-162.61a15.82,15.82,0,0,0,1.39,1,20.5,20.5,0,0,0,25.49-31.69,167.39,167.39,0,0,1,22.75-15.59C889.07,890.46,978.76,1041.78,978.76,1041.78Zm-54.13,242a5,5,0,1,0,0,.21.22.22,0,0,0,0-.08ZM796.6,1205a8.44,8.44,0,1,1,0,.13Zm93.07-206.29a6.8,6.8,0,1,0,9.37-2.25,6.79,6.79,0,0,0-9.37,2.25Z"/><polygon class="cls-5" points="815.86 1045.99 943.98 1051.47 944.4 1041.4 808.41 1035.58 815.86 1045.99"/><polygon class="cls-5" points="868.8 1120.07 959.87 1122.76 960.18 1112.67 861.43 1109.78 868.8 1120.07"/><polygon class="cls-5" points="917.26 1187.91 988.67 1188.97 988.82 1178.9 909.99 1177.72 917.26 1187.91"/><polygon class="cls-5" points="778.8 1169.46 815.46 1045.41 808.75 1036.02 807.79 1035.74 769.15 1166.6 778.8 1169.46"/><polygon class="cls-5" points="861.03 1109.23 831.47 1204.63 841.1 1207.62 868.41 1119.52 861.03 1109.23"/><polygon class="cls-5" points="894.42 1256.31 916.9 1187.39 910.23 1178.06 909.44 1177.8 884.83 1253.18 894.42 1256.31"/><polygon class="cls-5" points="990.76 1285.31 781.79 992.6 773.6 998.46 987.14 1297.6 990.76 1285.31"/></g><g class="cls-3"><path class="cls-7" d="M1950.24,1438.21a434.27,434.27,0,0,1-86.92,67.59,31.6,31.6,0,0,0-56.36,28.4c-123.73,51.79-239.7,37.85-249.86,36.44l-.26.33v-.37h-.38l.3-.29c-3.85-13.78-60.33-227.24,76.65-407.71,0,0,107.19-146.85,234-108.57a24,24,0,0,0-1.1,2.48,31.89,31.89,0,0,0,57.28,27,257.36,257.36,0,0,1,31.8,28.77C2146.67,1247.92,1950.24,1438.21,1950.24,1438.21Zm-385.64,5.7a10.59,10.59,0,1,0-6.75-13.37v0a10.55,10.55,0,0,0,6.71,13.32Zm72.86-222.06a18.52,18.52,0,1,0,11.82,23.37v0A18.52,18.52,0,0,0,1637.46,1221.85Zm345.91,66.06a10.59,10.59,0,1,0,6.75,13.37v0a10.56,10.56,0,0,0-6.71-13.33Z"/><polygon class="cls-5" points="1885.02 1193.4 1923.03 1389.13 1938.42 1386.12 1898.05 1178.38 1885.02 1193.4"/><polygon class="cls-5" points="1792.12 1300.24 1820.95 1438.95 1836.3 1435.74 1805.02 1285.38 1792.12 1300.24"/><polygon class="cls-5" points="1707.05 1398.03 1731.25 1506.4 1746.56 1502.98 1719.83 1383.39 1707.05 1398.03"/><polygon class="cls-5" points="1684.89 1182 1885.73 1192.62 1897.55 1179.05 1897.6 1177.51 1685.76 1166.35 1684.89 1182"/><polygon class="cls-5" points="1805.69 1284.6 1650.78 1274.36 1649.75 1290.01 1792.79 1299.45 1805.69 1284.6"/><polygon class="cls-5" points="1595.33 1388.2 1707.68 1397.29 1719.41 1383.88 1719.54 1382.55 1596.6 1372.59 1595.33 1388.2"/><polygon class="cls-5" points="1586.32 1544.36 1953.45 1122.61 1941.61 1112.3 1566.43 1543.34 1586.32 1544.36"/></g><g class="cls-3"><path class="cls-8" d="M1371.34,1530.07a352.92,352.92,0,0,1-57,69.2,25.77,25.77,0,0,0-39.75,32.67c-89.15,63.32-183.88,72.94-192.24,73.69v.3l-.14-.27h-.3l0-.3c-5.56-10.27-88.65-170-12-338,0,0,59-136,166.67-128.19,0,.71-.35,1.38-.41,2.12a26.05,26.05,0,0,0,23.39,28.45h0a26,26,0,0,0,27-17.23,213.08,213.08,0,0,1,30.46,17.18C1493.56,1343.53,1371.34,1530.07,1371.34,1530.07Zm-305.71,73.48a8.63,8.63,0,1,0-7.75-9.42c0,.07,0,.13,0,.2A8.65,8.65,0,0,0,1065.63,1603.55Zm18.22-189.68a15.09,15.09,0,1,0,13.61,16.5A15.11,15.11,0,0,0,1083.85,1413.87Zm287-9.27a8.63,8.63,0,1,0,7.76,9.44,8.68,8.68,0,0,0-7.76-9.44Z"/><polygon class="cls-8" points="1313.02 1287.17 1390.07 1144.04 1378.79 1137.99 1297.03 1289.91 1313.02 1287.17"/><polygon class="cls-5" points="1275.67 1347.01 1340.95 1495.91 1352.63 1490.76 1283.39 1332.73 1275.67 1347.01"/><polygon class="cls-5" points="1220.89 1448.63 1268.66 1553.78 1280.29 1548.48 1228.52 1434.46 1220.89 1448.63"/><polygon class="cls-5" points="1166.63 1542.16 1205.28 1624.02 1216.82 1618.55 1174.16 1528.2 1166.63 1542.16"/><polygon class="cls-5" points="1114.45 1373.76 1276.12 1346.25 1283.07 1333.37 1282.85 1332.11 1112.32 1361.15 1114.45 1373.76"/><polygon class="cls-5" points="1228.9 1433.73 1103.84 1453.31 1105.82 1465.94 1221.31 1447.87 1228.9 1433.73"/><polygon class="cls-5" points="1076.03 1554.32 1167.02 1541.46 1173.94 1528.67 1173.8 1527.62 1074.26 1541.66 1076.03 1554.32"/><polygon class="cls-5" points="1100.87 1679.6 1317.46 1278.44 1306.18 1272.39 1084.87 1682.35 1100.87 1679.6"/><path class="cls-4" d="M1552,978.83a475.66,475.66,0,0,1,105.75,57.94,34.64,34.64,0,0,0,53.06,44.32c105.86,101.86,142.24,224.54,145.3,235.34l.4.22-.32.28.11.38-.39-.22c-12.19,9.86-202.23,159.44-443.2,100.21,0,0-194.21-43.88-210.89-188a29,29,0,0,0,3,0,34.92,34.92,0,0,0,2.18-69.31,286.84,286.84,0,0,1,15.2-44.44C1275.23,864.11,1552,978.83,1552,978.83Zm173.51,385.06a49.28,49.28,0,1,0-.07.12Zm-255,23.32a29.09,29.09,0,1,0-.08,0v.09Zm-83.91-376.5a11.59,11.59,0,1,0,10.72-12.4l-.36,0a11.62,11.62,0,0,0-10.43,12.49Z"/><polygon class="cls-5" points="1334.23 1150.85 1514.47 1027.5 1504.77 1013.37 1313.45 1144.24 1334.23 1150.85"/><polygon class="cls-5" points="1482.03 1197.79 1608.94 1108.45 1599.06 1094.41 1461.46 1191.27 1482.03 1197.79"/><polygon class="cls-5" points="1617.36 1240.78 1715.75 1169.32 1705.69 1155.43 1597.06 1234.32 1617.36 1240.78"/><polygon class="cls-5" points="1409.78 1356.99 1333.1 1150.44 1314.37 1144.5 1312.8 1145.11 1393.7 1362.95 1409.78 1356.99"/><polygon class="cls-5" points="1460.39 1190.93 1517.48 1351.15 1533.65 1345.37 1480.94 1197.43 1460.39 1190.93"/><polygon class="cls-5" points="1656.04 1357.34 1616.33 1240.43 1597.7 1234.48 1596.37 1234.96 1639.79 1362.85 1656.04 1357.34"/><polygon class="cls-5" points="1816.97 1298.52 1233.27 1112.82 1228.12 1129.21 1824.57 1318.95 1816.97 1298.52"/><path class="cls-9" d="M985.56,1294.63a343,343,0,0,1-63.25-59.13,24.86,24.86,0,0,0-29-40.28c-55.53-89.77-59-181.65-59.19-189.71l-.27-.18.28-.08L834,1005l.27.18c10.25-4.7,169.18-74.93,326.35,9.24,0,0,127.36,65.17,113.28,168.44-.69-.17-1.35-.43-2-.54A25.1,25.1,0,0,0,1258,1229.9a203.56,203.56,0,0,1-18.45,28.27C1157.74,1423.8,985.56,1294.63,985.56,1294.63ZM933.49,995.58A8.32,8.32,0,1,0,943,988.7h0A8.34,8.34,0,0,0,933.49,995.58Zm181.62,29.22a14.56,14.56,0,1,0-16.7,12.09,14.58,14.58,0,0,0,16.7-12.09v0Zm-8.68,277a8.32,8.32,0,1,0-9.56,6.89A8.33,8.33,0,0,0,1106.43,1301.84Z"/><polygon class="cls-5" points="1167.78 1213.7 1020.34 1267.4 1024.58 1279 1181.07 1221.99 1167.78 1213.7"/><polygon class="cls-5" points="1073.27 1154.7 969.01 1194.24 973.41 1205.79 1086.41 1162.87 1073.27 1154.7"/><polygon class="cls-5" points="986.74 1100.65 905.52 1132.84 910.06 1144.32 999.73 1108.75 986.74 1100.65"/><polygon class="cls-5" points="1151.93 1056.73 1168.5 1214.16 1180.48 1221.66 1181.69 1221.51 1164.19 1055.48 1151.93 1056.73"/><polygon class="cls-5" points="980.6 1012.62 987.41 1101.04 999.3 1108.51 1000.33 1108.41 992.89 1011.65 980.6 1012.62"/><polygon class="cls-5" points="858.1 1024.88 1231.26 1258.15 1237.79 1247.66 856.46 1009.3 858.1 1024.88"/></g><path class="cls-10" d="M240.43,1602.73A217.65,217.65,0,0,1,189.52,1626a15.85,15.85,0,0,0-6.91-9,16.06,16.06,0,0,0-24.32,16.44A264.42,264.42,0,0,1,30.47,1622.1l-.22.1h0c-.29-7.25-3.11-119.43,85.8-192.6,0,0,70.23-60,128.43-26.19-.35.15-.6.68-.84,1.09a16.2,16.2,0,0,0,25.16,20,132.83,132.83,0,0,1,12.34,18C359.92,1531.68,240.43,1602.73,240.43,1602.73ZM49.08,1560.3a5.36,5.36,0,1,0-.28-.17ZM111.18,1459a9.62,9.62,0,1,0,2.9,13.28l.21-.33A9.62,9.62,0,0,0,111.18,1459Zm163.27,73.35a5.38,5.38,0,1,0,1.77,7.4,5.32,5.32,0,0,0-1.69-7.35Z"/><polygon class="cls-10" points="274.21 1450.73 356.52 1391.65 351.85 1385.19 264.52 1447.89 274.21 1450.73"/><polygon class="cls-5" points="236.95 1474.05 232.75 1575.27 240.69 1575.62 245.14 1468.16 236.95 1474.05"/><polygon class="cls-5" points="178.44 1515.97 176.41 1587.96 184.41 1588.18 186.55 1510.13 178.44 1515.97"/><polygon class="cls-5" points="124.9 1554.35 124.13 1610.78 132.11 1610.85 132.94 1548.59 124.9 1554.35"/><polygon class="cls-5" points="139.32 1444.91 237.4 1473.75 244.78 1468.42 244.98 1467.66 141.55 1437.3 139.32 1444.91"/><polygon class="cls-5" points="187 1509.83 111.58 1486.57 109.25 1494.16 178.89 1515.68 187 1509.83"/><polygon class="cls-5" points="70.8 1536.36 125.31 1554.07 132.65 1548.77 132.9 1548.13 73.3 1528.79 70.8 1536.36"/><polygon class="cls-5" points="48.01 1612.51 279.07 1447.07 274.41 1440.6 38.31 1609.68 48.01 1612.51"/><g class="cls-3"><polygon class="cls-11" points="146.63 1381.22 36.17 1143.64 17.51 1152.32 134.73 1404.51 146.63 1381.22"/><path class="cls-9" d="M180.58,1315a448.77,448.77,0,0,1-27.66,110.15,32.62,32.62,0,0,0-27.72,58.94A538.38,538.38,0,0,1-54.69,1672.54l0,.44-.27-.27-.27.27,0-.44c-11.79-8.62-193.63-146.44-196.89-380,0,0-6.29-187.49,121.11-237,.23.91.37,1.8.67,2.72A33,33,0,0,0-88.12,1078a32.87,32.87,0,0,0,21.46-34.33,267.07,267.07,0,0,1,44.13,3.16C219.19,1035.41,180.58,1315,180.58,1315Zm-309.79,249.81a11,11,0,0,0,6.52-13.91,11,11,0,0,0-13.94-6.48,10.9,10.9,0,0,0-6.48,13.93A10.91,10.91,0,0,0-129.21,1564.78Zm-82-226.82a19.23,19.23,0,0,0-11.53,24.56A19.22,19.22,0,0,0-198.25,1374a19.22,19.22,0,0,0,11.46-24.49A19.22,19.22,0,0,0-211.2,1338ZM112,1171.78a10.87,10.87,0,1,0,13.94,6.49,11,11,0,0,0-13.94-6.49Z"/><polygon class="cls-5" points="-28.09 1157.45 127.25 1292.36 137.84 1280.17 -27.01 1136.96 -28.09 1157.45"/><polygon class="cls-5" points="-35.65 1303.38 75.97 1397.72 86.42 1385.4 -34.61 1283.06 -35.65 1303.38"/><polygon class="cls-5" points="-42.61 1436.94 45.96 1509.6 56.22 1497.07 -41.57 1416.9 -42.61 1436.94"/></g><g class="cls-3"><polygon class="cls-11" points="2174.06 1613.17 2063.6 1375.59 2044.93 1384.27 2162.16 1636.46 2174.06 1613.17"/><path class="cls-9" d="M2208,1546.91a448.38,448.38,0,0,1-27.65,110.16,32.63,32.63,0,0,0-27.73,58.94,538.27,538.27,0,0,1-179.88,188.48l0,.44-.27-.27-.27.27,0-.44c-11.79-8.62-193.62-146.44-196.88-380,0,0-6.29-187.49,121.11-237,.23.92.36,1.81.67,2.73a32.9,32.9,0,0,0,63.68-14.53,267.21,267.21,0,0,1,44.13,3.15C2246.62,1267.36,2208,1546.91,2208,1546.91Zm-309.78,249.81a10.85,10.85,0,1,0-13.9-6.45A11,11,0,0,0,1898.22,1796.72Zm-82-226.81a19.14,19.14,0,1,0,24.42,11.53,19.23,19.23,0,0,0-24.42-11.53Zm323.17-166.18a10.87,10.87,0,1,0,13.94,6.49,11,11,0,0,0-13.94-6.49Z"/><polygon class="cls-9" points="2009.6 1300.74 2020.08 1095.29 2003.94 1094.5 1992.79 1312.53 2009.6 1300.74"/><polygon class="cls-5" points="1999.34 1389.4 2154.68 1524.31 2165.27 1512.12 2000.41 1368.91 1999.34 1389.4"/><polygon class="cls-5" points="1991.78 1535.33 2103.4 1629.67 2113.85 1617.35 1992.82 1515.01 1991.78 1535.33"/><polygon class="cls-5" points="1984.82 1668.89 2073.39 1741.55 2083.64 1729.02 1985.86 1648.85 1984.82 1668.89"/><polygon class="cls-5" points="1829.45 1507.41 1999.41 1388.31 2000.41 1369.8 1999.47 1368.5 1820.17 1494.14 1829.45 1507.41"/><polygon class="cls-5" points="1992.86 1513.96 1860.42 1604.13 1869.57 1617.53 1991.85 1534.24 1992.86 1513.96"/><polygon class="cls-5" points="1887.78 1731.9 1984.89 1667.87 1985.82 1649.49 1985.11 1648.37 1878.9 1718.44 1887.78 1731.9"/><polygon class="cls-5" points="1979.71 1864.55 2009.96 1288.34 1993.75 1287.56 1962.91 1876.34 1979.71 1864.55"/></g><g class="cls-3"><path class="cls-8" d="M515.69,1155.56a623.69,623.69,0,0,1,100.19,122.49,45.49,45.49,0,0,0,42.91,80c79,176.1,63.07,343.4,61.5,358.13l.51.12-.52.15-.13.51-.51-.12c-19.68,6.08-324.77,95-589.25-95.51,0,0-215.12-148.8-164.63-332.6,1.23.29,2.28,1.08,3.54,1.44a46,46,0,0,0,57.28-30.71l0,0A45.93,45.93,0,0,0,6,1206.86,375.1,375.1,0,0,1,46.25,1160C234.76,879.87,515.69,1155.56,515.69,1155.56Zm22.13,554.52a15.24,15.24,0,1,0-19,10.18l.33.09A15.27,15.27,0,0,0,537.82,1710.08Zm-322.11-96.75A26.64,26.64,0,1,0,249,1595.44,26.64,26.64,0,0,0,215.71,1613.33Zm82.6-500a14.8,14.8,0,1,1,.06,0Z"/><polygon class="cls-8" points="75.13 1173.04 -146.16 990.45 -160.52 1007.89 74.39 1201.67 75.13 1173.04"/><polygon class="cls-5" points="165.89 1258.26 446.1 1196.44 441.21 1174.45 143.82 1239.99 165.89 1258.26"/><polygon class="cls-5" points="322.98 1388.03 521.44 1341.47 516.27 1319.52 301.08 1369.96 322.98 1388.03"/><polygon class="cls-5" points="466.25 1514.11 621.26 1475.35 615.75 1453.49 444.67 1496.28 466.25 1514.11"/><polygon class="cls-5" points="156.79 1546.56 164.73 1257.23 144.82 1240.77 142.57 1240.72 134.23 1545.92 156.79 1546.56"/><polygon class="cls-5" points="299.95 1369.04 290.86 1592.29 313.4 1593.2 321.81 1387.05 299.95 1369.04"/><polygon class="cls-5" points="456.16 1675.14 465.17 1513.21 445.4 1496.83 443.54 1496.71 433.64 1673.86 456.16 1675.14"/><polygon class="cls-5" points="681.59 1675.22 61.55 1162.35 47.19 1179.8 680.85 1703.84 681.59 1675.22"/></g></g></g></g></svg>