<svg xmlns="http://www.w3.org/2000/svg" xmlns:xlink="http://www.w3.org/1999/xlink" viewBox="0 0 1125 2436"><defs><style>.cls-1{isolation:isolate;}.cls-2{fill:url(#linear-gradient);}.cls-3{mix-blend-mode:soft-light;}.cls-4{fill:#639a3f;}.cls-5{fill:#015f54;}.cls-6{fill:#014c59;}.cls-7{fill:#0086a6;}.cls-8{fill:#007459;}.cls-9{fill:#0c5347;}.cls-10{fill:#4d9958;}.cls-11{fill:#006f8a;}.cls-12{opacity:0.32;}</style><linearGradient id="linear-gradient" x1="-9.73" y1="2973.94" x2="1174.78" y2="-659.95" gradientUnits="userSpaceOnUse"><stop offset="0.05" stop-color="#639a3f"/><stop offset="1" stop-color="#0c5347"/></linearGradient></defs><g class="cls-1"><g id="Layer_1" data-name="Layer 1"><rect class="cls-2" x="-474.4" y="-150.26" width="2074.2" height="2736.18"/><g class="cls-3"><path class="cls-4" d="M654.08,196.28a368.16,368.16,0,0,0,10.76,92.79,26.84,26.84,0,0,1,16.35,51C723.44,445.77,800.89,507.64,807.75,513l0,.35.29-.15.24.19,0-.35c10.63-5.87,173.4-98.67,201.14-288.91,0,0,25.12-152.2-73.48-206.19-.25.72-.52,1.43-.84,2.13A27.05,27.05,0,0,1,884.73,1.41a223.05,223.05,0,0,0-36.34-2C652.41-35.82,654.08,196.28,654.08,196.28Zm225.81,236.8a29.2,29.2,0,1,1,.11,0ZM971,256.86a15.72,15.72,0,1,1-21.18,6.76A15.72,15.72,0,0,1,971,256.86l.07,0Zm-245.79-170a9,9,0,1,1-12,4.09l.14-.26a9,9,0,0,1,12-3.84Z"/><polygon class="cls-5" points="841.03 90.13 699.95 183.55 692.63 172.47 842.35 73.29 841.03 90.13"/><polygon class="cls-5" points="831.64 209.91 730.51 274.96 723.31 263.77 832.96 193.24 831.64 209.91"/><polygon class="cls-5" points="823.05 319.58 743.07 369.37 736.03 358.1 824.32 303.12 823.05 319.58"/><polygon class="cls-5" points="966.97 204.46 841.07 89.2 842.26 74.02 843.16 73.07 975.94 194.65 966.97 204.46"/><polygon class="cls-5" points="833.02 192.37 931.39 280.06 922.52 289.98 831.7 209.02 833.02 192.37"/><polygon class="cls-5" points="895.44 381.32 823.09 318.74 824.26 303.63 824.99 302.82 904.13 371.26 895.44 381.32"/><polygon class="cls-5" points="806.3 479.69 843.17 6.57 856.43 7.66 818.75 491.1 806.3 479.69"/></g><g class="cls-3"><path class="cls-6" d="M580.31,22.18a236.77,236.77,0,0,0-24.74,54.46,17.2,17.2,0,0,1-7.89,33.4C535.94,182,558,241.51,560,246.7l-.15.18.19-.06.07.18.13-.16c7.79.27,127.71,3.17,205.8-92,0,0,64.07-75.19,27.82-137.4a11.27,11.27,0,0,1-1.17.89A17.32,17.32,0,0,1,771.14-8.45a141.62,141.62,0,0,0-19.23-13.18C656.09-105.67,580.31,22.18,580.31,22.18ZM626,226.62a4.23,4.23,0,1,1,0,.18.43.43,0,0,0,0-.07Zm108.18-66.56a7.12,7.12,0,1,0,0,.11ZM655.58-14.23a5.73,5.73,0,0,1-1.91,7.89,5.74,5.74,0,0,1-7.89-1.92,5.73,5.73,0,0,1,1.88-7.87,5.75,5.75,0,0,1,7.91,1.87Z"/><polygon class="cls-5" points="717.95 25.74 609.69 30.37 609.34 21.86 724.24 16.94 717.95 25.74"/><polygon class="cls-5" points="673.22 88.33 596.27 90.6 596.01 82.08 679.45 79.64 673.22 88.33"/><polygon class="cls-5" points="632.27 145.65 571.93 146.54 571.81 138.03 638.42 137.04 632.27 145.65"/><polygon class="cls-5" points="749.25 130.06 718.29 25.25 723.95 17.32 724.77 17.08 757.41 127.65 749.25 130.06"/><polygon class="cls-5" points="679.78 79.17 704.76 159.77 696.62 162.3 673.55 87.87 679.78 79.17"/><polygon class="cls-5" points="651.57 203.44 632.57 145.21 638.21 137.33 638.88 137.1 659.67 200.79 651.57 203.44"/><polygon class="cls-5" points="570.17 227.94 746.73 -19.37 753.65 -14.42 573.23 238.33 570.17 227.94"/></g><g class="cls-3"><path class="cls-7" d="M-240.51,357.13a366.81,366.81,0,0,0,73.44,57.11,26.7,26.7,0,0,1,36.46-9.85,26.7,26.7,0,0,1,11.16,33.85C-14.91,482,83.08,470.21,91.66,469l.22.27V469h.32l-.25-.25c3.25-11.64,51-192-64.76-344.48,0,0-90.57-124.07-197.7-91.73a21.87,21.87,0,0,1,.92,2.1,26.94,26.94,0,0,1-17.2,34A27,27,0,0,1-218,57.41a215.67,215.67,0,0,0-26.87,24.3C-406.48,196.35-240.51,357.13-240.51,357.13ZM85.33,362A8.95,8.95,0,1,1,91,350.65v0a8.9,8.9,0,0,1-5.66,11.26ZM23.76,174.32a15.65,15.65,0,1,1-10,19.75v0A15.65,15.65,0,0,1,23.76,174.32ZM-268.5,230.14a9,9,0,0,1,11.3,5.69,9,9,0,0,1-5.7,11.3,8.94,8.94,0,0,1-11.3-5.69v0a8.91,8.91,0,0,1,5.67-11.26Z"/><polygon class="cls-5" points="-118.38 227.34 12.51 218.69 13.38 231.91 -107.48 239.89 -118.38 227.34"/><polygon class="cls-5" points="59.36 314.87 -35.56 322.56 -45.47 311.23 -45.59 310.11 58.28 301.69 59.36 314.87"/><polygon class="cls-5" points="66.97 446.82 -243.22 90.47 -233.21 81.77 83.77 445.96 66.97 446.82"/></g><g class="cls-3"><path class="cls-8" d="M248.61,434.74a298.13,298.13,0,0,0,48.17,58.47,21.78,21.78,0,0,1,33.59,27.61c75.32,53.5,155.36,61.63,162.42,62.26v.25l.12-.23h.25v-.25c4.69-8.68,74.9-143.63,10.09-285.58,0,0-49.81-114.88-140.82-108.31,0,.6.29,1.17.34,1.8a22,22,0,0,1-19.76,24h0a22,22,0,0,1-22.78-14.55,178.76,178.76,0,0,0-25.73,14.51C145.35,277.13,248.61,434.74,248.61,434.74Zm258.3,62.09a7.29,7.29,0,1,1,6.55-8,1,1,0,0,1,0,.17A7.3,7.3,0,0,1,506.91,496.83ZM491.52,336.57A12.75,12.75,0,1,1,480,350.51,12.75,12.75,0,0,1,491.52,336.57ZM249,328.74a7.29,7.29,0,1,1-6.56,8,7.34,7.34,0,0,1,6.56-8Z"/><polygon class="cls-8" points="297.89 229.51 232.78 108.58 242.31 103.47 311.4 231.83 297.89 229.51"/><polygon class="cls-5" points="329.44 280.07 274.29 405.88 264.42 401.54 322.92 268.01 329.44 280.07"/><polygon class="cls-5" points="375.73 365.93 335.36 454.78 325.54 450.3 369.28 353.96 375.73 365.93"/><polygon class="cls-5" points="421.57 444.96 388.92 514.13 379.17 509.5 415.21 433.16 421.57 444.96"/><polygon class="cls-5" points="465.66 302.68 329.06 279.43 323.19 268.55 323.38 267.49 467.46 292.03 465.66 302.68"/><polygon class="cls-5" points="368.96 353.35 474.63 369.89 472.95 380.56 375.38 365.29 368.96 353.35"/><polygon class="cls-5" points="498.12 455.23 421.25 444.37 415.4 433.56 415.52 432.67 499.62 444.54 498.12 455.23"/><polygon class="cls-5" points="477.14 561.09 294.13 222.14 303.67 217.02 490.65 563.41 477.14 561.09"/><path class="cls-4" d="M96-31A401.33,401.33,0,0,0,6.65,18,29.27,29.27,0,0,1,.29,58.85,29.26,29.26,0,0,1-38.18,55.4C-127.63,141.46-158.37,245.11-161,254.24l-.33.19.27.23-.09.32.33-.18c10.3,8.32,170.86,134.71,374.46,84.67,0,0,164.09-37.08,178.19-158.86-.83,0-1.66.06-2.5,0a29.51,29.51,0,0,1-1.83-58.56,242.9,242.9,0,0,0-12.85-37.56C329.82-127.93,96-31,96-31ZM-50.61,294.34a9.81,9.81,0,0,1,10.66-8.86,9.8,9.8,0,0,1,8.85,10.66A9.79,9.79,0,0,1-41.74,305a9.79,9.79,0,0,1-8.81-10.55ZM164.81,314a21.59,21.59,0,1,1,.07,0v.09ZM235.71-4.07A9.8,9.8,0,0,1,225.24,5a9.8,9.8,0,0,1-9.07-10.48,9.79,9.79,0,0,1,10.48-9.06l.31,0A9.83,9.83,0,0,1,235.77-4Z"/><polygon class="cls-5" points="279.97 114.33 127.67 10.12 135.87 -1.83 297.52 108.75 279.97 114.33"/><polygon class="cls-5" points="155.09 153.99 47.86 78.51 56.21 66.65 172.47 148.49 155.09 153.99"/><polygon class="cls-5" points="40.74 190.32 -42.39 129.94 -33.88 118.21 57.9 184.86 40.74 190.32"/><polygon class="cls-5" points="216.13 288.5 280.92 113.99 296.75 108.97 298.07 109.49 229.72 293.54 216.13 288.5"/><polygon class="cls-5" points="173.37 148.2 125.14 283.57 111.47 278.69 156.01 153.69 173.37 148.2"/><polygon class="cls-5" points="8.07 288.8 41.62 190.02 57.35 185 58.48 185.41 21.8 293.46 8.07 288.8"/><polygon class="cls-5" points="-127.91 239.1 365.27 82.2 369.62 96.05 -134.33 256.36 -127.91 239.1"/><path class="cls-9" d="M574.56,235.82a289.67,289.67,0,0,0,53.44-50,21,21,0,0,1,24.53-34C699.44,76,702.38-1.65,702.54-8.47l.22-.14-.24-.07.07-.24-.23.15c-8.65-4-142.94-63.31-275.74,7.8,0,0-107.6,55.07-95.7,142.33a17.46,17.46,0,0,1,1.72-.46,21.21,21.21,0,0,1,11.74,40.23A170.81,170.81,0,0,0,360,205C429.08,345,574.56,235.82,574.56,235.82Zm44-252.67a7,7,0,0,1-5.82,8.06,7,7,0,0,1-8.07-5.81,7,7,0,0,1,5.82-8.07h0A7.06,7.06,0,0,1,618.56-16.85ZM465.11,7.83a12.3,12.3,0,1,1,14.1,10.22,12.29,12.29,0,0,1-14.1-10.22v0Zm7.33,234.08a7,7,0,1,1,8.08,5.82A7,7,0,0,1,472.44,241.91Z"/><polygon class="cls-5" points="420.6 167.44 545.18 212.81 541.6 222.61 409.37 174.44 420.6 167.44"/><polygon class="cls-5" points="500.45 117.59 588.54 151 584.83 160.75 489.35 124.49 500.45 117.59"/><polygon class="cls-5" points="573.56 71.92 642.19 99.12 638.36 108.82 562.59 78.77 573.56 71.92"/><polygon class="cls-5" points="434 34.82 420 167.83 409.87 174.16 408.85 174.04 423.63 33.75 434 34.82"/><polygon class="cls-5" points="578.75 -2.46 573 72.25 562.96 78.56 562.09 78.48 568.37 -3.27 578.75 -2.46"/><polygon class="cls-5" points="682.26 7.9 366.97 204.99 361.45 196.13 683.64 -5.26 682.26 7.9"/></g><polygon class="cls-10" points="1175.59 367.71 1106.05 317.79 1109.99 312.33 1183.78 365.31 1175.59 367.71"/><g class="cls-3"><path class="cls-8" d="M971.57,118.32a526.89,526.89,0,0,0-84.66,103.49,38.43,38.43,0,0,1-36.26,67.63C783.93,438.24,797.37,579.59,798.7,592l-.43.11.44.12.1.43.43-.1c16.63,5.14,274.4,80.29,497.87-80.69,0,0,181.75-125.73,139.1-281-1,.25-1.93.92-3,1.22a38.83,38.83,0,0,1-48.4-26l0,0a38.8,38.8,0,0,1,17.37-44.44,316.09,316.09,0,0,0-34-39.56C1208.93-114.62,971.57,118.32,971.57,118.32Zm-18.7,468.52a12.87,12.87,0,1,1,16,8.6l-.29.08A12.9,12.9,0,0,1,952.87,586.84ZM1225,505.1A22.51,22.51,0,1,1,1196.94,490,22.52,22.52,0,0,1,1225,505.1ZM1155.23,82.6a12.88,12.88,0,1,1-16-8.6,12.94,12.94,0,0,1,16,8.6Z"/><polygon class="cls-5" points="1267.12 205.09 1030.36 152.86 1034.49 134.28 1285.76 189.65 1267.12 205.09"/><polygon class="cls-5" points="1134.38 314.73 966.71 275.39 971.07 256.85 1152.89 299.46 1134.38 314.73"/><polygon class="cls-5" points="1013.34 421.26 882.37 388.51 887.02 370.04 1031.57 406.2 1013.34 421.26"/><polygon class="cls-5" points="1021.87 557.32 1014.25 420.5 1030.95 406.66 1032.52 406.56 1040.88 556.24 1021.87 557.32"/><polygon class="cls-5" points="831.39 557.38 1355.27 124.06 1367.4 138.79 832.02 581.57 831.39 557.38"/></g><g class="cls-3"><path class="cls-6" d="M-37.45,1022.89a151.88,151.88,0,0,0-15.9,35,11,11,0,0,1,7.29,13.81,11,11,0,0,1-12.35,7.64c-7.54,46.2,6.61,84.44,7.9,87.78l-.09.12.12,0,0,.12.08-.1c5,.17,82,2,132.19-59.1,0,0,41.16-48.3,17.88-88.26a6.85,6.85,0,0,1-.76.57,11.12,11.12,0,0,1-13.83-17.19,91.21,91.21,0,0,0-12.35-8.47C11.22,940.76-37.45,1022.89-37.45,1022.89ZM-8.08,1154.2a3.69,3.69,0,0,1,1.23-5.07,3.69,3.69,0,0,1,5.07,1.23A3.68,3.68,0,0,1-3,1155.42a3.68,3.68,0,0,1-5.08-1.1l0,0Zm69.49-42.75a4.58,4.58,0,1,0,0,.07Zm-50.51-112a3.69,3.69,0,1,1-5.09-1.22,3.69,3.69,0,0,1,5.09,1.22Z"/><polygon class="cls-5" points="50.95 1025.17 -18.58 1028.14 -18.81 1022.68 55 1019.52 50.95 1025.17"/><polygon class="cls-5" points="22.22 1065.38 -27.2 1066.83 -27.37 1061.36 26.23 1059.79 22.22 1065.38"/><polygon class="cls-5" points="71.07 1092.18 51.17 1024.85 54.81 1019.76 55.34 1019.61 76.3 1090.63 71.07 1092.18"/><polygon class="cls-5" points="26.44 1059.49 42.48 1111.26 37.26 1112.89 22.43 1065.08 26.44 1059.49"/><polygon class="cls-5" points="8.32 1139.31 -3.88 1101.91 -0.26 1096.85 0.17 1096.7 13.53 1137.61 8.32 1139.31"/><polygon class="cls-5" points="-43.97 1155.05 69.44 996.19 73.89 999.37 -42 1161.72 -43.97 1155.05"/></g><g class="cls-3"><path class="cls-7" d="M-251.29,825.67a366.81,366.81,0,0,0,73.44,57.11,26.71,26.71,0,0,1,36.46-9.84,26.7,26.7,0,0,1,11.16,33.84c104.54,43.76,202.52,32,211.11,30.79l.22.28v-.32h.32l-.25-.24c3.25-11.64,51-192-64.76-344.48,0,0-90.57-124.07-197.7-91.74.34.69.65,1.39.92,2.1a27,27,0,0,1-17.2,34A27,27,0,0,1-228.77,526a216.53,216.53,0,0,0-26.87,24.31C-417.26,664.9-251.29,825.67-251.29,825.67Zm325.84,4.82a8.95,8.95,0,1,1,5.69-11.3v0a8.91,8.91,0,0,1-5.66,11.26ZM13,642.87A15.65,15.65,0,1,1,3,662.62v0A15.64,15.64,0,0,1,13,642.87Zm-292.26,55.81a9,9,0,0,1,11.29,5.7,9,9,0,0,1-5.69,11.3A8.94,8.94,0,0,1-285,710v0a8.9,8.9,0,0,1,5.67-11.25Z"/><polygon class="cls-5" points="-129.16 695.89 1.73 687.24 2.6 700.46 -118.26 708.44 -129.16 695.89"/><polygon class="cls-5" points="48.58 783.42 -46.35 791.1 -56.26 779.77 -56.37 778.65 47.5 770.23 48.58 783.42"/><polygon class="cls-5" points="56.19 915.37 -254 559.02 -244 550.31 72.99 914.51 56.19 915.37"/></g><g class="cls-3"><path class="cls-8" d="M976.75,1051.73a298.48,298.48,0,0,1-48.17,58.47A21.78,21.78,0,0,0,895,1137.81c-75.33,53.5-155.36,61.63-162.43,62.26v.25l-.11-.23h-.25v-.25c-4.7-8.68-74.9-143.63-10.09-285.58,0,0,49.81-114.88,140.82-108.31,0,.6-.3,1.17-.35,1.79a22,22,0,0,0,19.76,24h0a22,22,0,0,0,22.78-14.55,179.3,179.3,0,0,1,25.73,14.51C1080,894.12,976.75,1051.73,976.75,1051.73Zm-258.31,62.09a7.29,7.29,0,1,0-6.55-8c0,.06,0,.11,0,.17A7.31,7.31,0,0,0,718.44,1113.82Zm15.4-160.26a12.75,12.75,0,1,0,11.5,13.94A12.76,12.76,0,0,0,733.84,953.56Zm242.49-7.83a7.29,7.29,0,1,0,6.55,8,7.34,7.34,0,0,0-6.55-8Z"/><polygon class="cls-8" points="927.47 846.5 992.57 725.58 983.04 720.46 913.96 848.82 927.47 846.5"/><polygon class="cls-5" points="895.91 897.06 951.07 1022.87 960.93 1018.52 902.44 885 895.91 897.06"/><polygon class="cls-5" points="849.63 982.92 889.99 1071.77 899.82 1067.29 856.07 970.96 849.63 982.92"/><polygon class="cls-5" points="803.78 1061.95 836.43 1131.12 846.19 1126.49 810.14 1050.15 803.78 1061.95"/><polygon class="cls-5" points="759.7 919.67 896.29 896.42 902.16 885.54 901.98 884.48 757.9 909.01 759.7 919.67"/><polygon class="cls-5" points="856.4 970.34 750.73 986.88 752.4 997.55 849.98 982.28 856.4 970.34"/><polygon class="cls-5" points="727.23 1072.22 804.11 1061.36 809.95 1050.55 809.84 1049.66 725.73 1061.53 727.23 1072.22"/><polygon class="cls-5" points="748.22 1178.08 931.22 839.13 921.69 834.01 734.71 1180.4 748.22 1178.08"/><path class="cls-4" d="M1129.36,586a401.62,401.62,0,0,1,89.35,49,29.27,29.27,0,0,0,44.83,37.45c89.45,86.06,120.18,189.71,122.77,198.84l.33.18-.26.24.09.32-.33-.18c-10.3,8.32-170.87,134.71-374.47,84.67,0,0-164.09-37.08-178.18-158.86q1.25.07,2.49,0a29.51,29.51,0,0,0,1.84-58.56,241.85,241.85,0,0,1,12.85-37.56C895.54,489.06,1129.36,586,1129.36,586ZM1276,911.33a44.79,44.79,0,1,0-.06.1ZM1060.54,931a23.08,23.08,0,1,0-.06,0v.08Zm-70.9-318.11a9.8,9.8,0,1,0,9.07-10.48l-.31,0A9.83,9.83,0,0,0,989.58,613Z"/><polygon class="cls-5" points="945.39 731.32 1097.68 627.11 1089.48 615.16 927.83 725.74 945.39 731.32"/><polygon class="cls-5" points="1070.27 770.98 1177.49 695.5 1169.14 683.64 1052.89 765.48 1070.27 770.98"/><polygon class="cls-5" points="1009.22 905.49 944.43 730.98 928.61 725.96 927.28 726.48 995.64 910.53 1009.22 905.49"/><polygon class="cls-5" points="1051.98 765.19 1100.22 900.56 1113.88 895.68 1069.34 770.68 1051.98 765.19"/><polygon class="cls-5" points="1353.26 856.09 860.08 699.2 855.74 713.04 1359.68 873.35 1353.26 856.09"/><path class="cls-9" d="M650.79,852.81a289.7,289.7,0,0,1-53.44-50,21,21,0,0,0-24.52-34C525.91,693,523,615.34,522.82,608.52l-.23-.14.24-.07-.07-.24.23.15c8.66-4,143-63.31,275.74,7.8,0,0,107.61,55.07,95.71,142.32-.58-.14-1.14-.36-1.73-.45A21.21,21.21,0,0,0,881,798.12,170.88,170.88,0,0,1,865.39,822C796.27,961.94,650.79,852.81,650.79,852.81Zm-44-252.67a7,7,0,1,0,8.06-5.82h0A7,7,0,0,0,606.8,600.14Zm153.45,24.68A12.3,12.3,0,1,0,746.14,635a12.3,12.3,0,0,0,14.11-10.22v0ZM752.92,858.9a7,7,0,1,0-8.08,5.82A7,7,0,0,0,752.92,858.9Z"/><polygon class="cls-5" points="804.76 784.43 680.18 829.8 683.76 839.6 815.99 791.43 804.76 784.43"/><polygon class="cls-5" points="724.9 734.58 636.81 767.98 640.52 777.74 736.01 741.48 724.9 734.58"/><polygon class="cls-5" points="651.79 688.91 583.16 716.11 587 725.81 662.76 695.75 651.79 688.91"/><polygon class="cls-5" points="791.36 651.81 805.36 784.82 815.48 791.15 816.5 791.03 801.72 650.74 791.36 651.81"/><polygon class="cls-5" points="646.6 614.53 652.36 689.24 662.4 695.55 663.27 695.47 656.99 613.72 646.6 614.53"/><polygon class="cls-5" points="543.1 624.89 858.39 821.98 863.9 813.12 541.72 611.73 543.1 624.89"/></g><path class="cls-10" d="M455.68,682.23a102.18,102.18,0,0,1-23.92,10.91,7.43,7.43,0,0,0-3.25-4.23,7.55,7.55,0,0,0-11.43,7.72A124.11,124.11,0,0,1,357,691.34l-.11,0h0c-.14-3.41-1.46-56.12,40.31-90.5,0,0,33-28.19,60.35-12.3-.16.07-.28.31-.39.51A7.61,7.61,0,0,0,469,598.51a62.49,62.49,0,0,1,5.8,8.44C511.82,648.85,455.68,682.23,455.68,682.23ZM365.77,662.3a2.54,2.54,0,1,0-.13-.08ZM395,614.7a4.52,4.52,0,1,0,1.36,6.24.86.86,0,0,0,.1-.16A4.52,4.52,0,0,0,395,614.7Zm76.72,34.47a2.53,2.53,0,0,0-2.65,4.31,2.56,2.56,0,0,0,3.48-.84,2.5,2.5,0,0,0-.8-3.45Z"/><polygon class="cls-10" points="471.56 610.81 510.23 583.05 508.04 580.01 467 609.48 471.56 610.81"/><polygon class="cls-5" points="454.04 621.77 452.07 669.33 455.8 669.49 457.89 619 454.04 621.77"/><polygon class="cls-5" points="426.55 641.47 425.6 675.29 429.36 675.39 430.36 638.72 426.55 641.47"/><polygon class="cls-5" points="401.39 659.5 401.03 686.01 404.78 686.05 405.17 656.79 401.39 659.5"/><polygon class="cls-5" points="408.17 608.07 454.25 621.63 457.73 619.13 457.82 618.77 409.22 604.5 408.17 608.07"/><polygon class="cls-5" points="430.57 638.58 395.14 627.65 394.04 631.22 426.76 641.33 430.57 638.58"/><polygon class="cls-5" points="375.97 651.04 401.58 659.37 405.04 656.88 405.15 656.58 377.15 647.49 375.97 651.04"/><polygon class="cls-5" points="365.26 686.83 473.84 609.09 471.64 606.05 360.71 685.5 365.26 686.83"/><g class="cls-3"><polygon class="cls-11" points="240.59 879.34 333.92 678.6 349.69 685.94 250.64 899.02 240.59 879.34"/><path class="cls-9" d="M211.91,823.36a378.83,378.83,0,0,0,23.36,93.07,27.57,27.57,0,0,1,23.43,49.8,454.84,454.84,0,0,0,152,159.25l0,.37.23-.23.23.23,0-.37c10-7.28,163.59-123.73,166.35-321.09,0,0,5.31-158.42-102.33-200.25-.2.77-.31,1.52-.56,2.3a27.8,27.8,0,0,1-53.81-12.28,225.87,225.87,0,0,0-37.29,2.67C179.28,587.16,211.91,823.36,211.91,823.36Zm261.74,211.07a9.17,9.17,0,1,1,11.74-5.45A9.25,9.25,0,0,1,473.65,1034.43Zm69.28-191.64a16.17,16.17,0,1,1-20.63,9.74,16.26,16.26,0,0,1,20.63-9.74Zm-273-140.41a9.19,9.19,0,1,1-11.78,5.48,9.27,9.27,0,0,1,11.78-5.48Z"/><polygon class="cls-9" points="379.54 615.37 370.69 441.77 384.32 441.11 393.75 625.33 379.54 615.37"/><polygon class="cls-5" points="388.21 690.27 256.96 804.26 248.01 793.96 387.3 672.96 388.21 690.27"/><polygon class="cls-5" points="394.6 813.57 300.29 893.28 291.46 882.87 393.72 796.4 394.6 813.57"/><polygon class="cls-5" points="400.48 926.42 325.64 987.81 316.98 977.22 399.6 909.48 400.48 926.42"/><polygon class="cls-5" points="531.75 789.98 388.15 689.36 387.3 673.71 388.1 672.61 539.59 778.77 531.75 789.98"/><polygon class="cls-5" points="393.68 795.51 505.58 871.7 497.86 883.02 394.54 812.65 393.68 795.51"/><polygon class="cls-5" points="482.47 979.66 400.42 925.56 399.63 910.03 400.23 909.08 489.97 968.28 482.47 979.66"/><polygon class="cls-5" points="404.79 1091.74 379.24 604.89 392.93 604.22 418.99 1101.7 404.79 1091.74"/></g><g class="cls-3"><polygon class="cls-11" points="443.53 570.87 536.86 370.14 552.63 377.48 453.58 590.55 443.53 570.87"/><path class="cls-9" d="M414.85,514.9A379.39,379.39,0,0,0,438.21,608a27.57,27.57,0,0,1,23.43,49.8A454.84,454.84,0,0,0,613.63,817l0,.37.23-.23.23.23,0-.38c10-7.28,163.6-123.72,166.35-321.09,0,0,5.31-158.41-102.33-200.25-.19.78-.31,1.53-.56,2.3a27.8,27.8,0,0,1-53.81-12.27,226,226,0,0,0-37.29,2.67C382.22,278.7,414.85,514.9,414.85,514.9ZM676.59,726a9.16,9.16,0,1,1,11.75-5.45A9.25,9.25,0,0,1,676.59,726Zm69.28-191.63a16.17,16.17,0,1,1-20.63,9.74,16.23,16.23,0,0,1,20.63-9.74Zm-273-140.41A9.18,9.18,0,1,1,461,399.4a9.24,9.24,0,0,1,11.78-5.48Z"/><polygon class="cls-9" points="582.49 306.9 573.63 133.31 587.27 132.64 596.69 316.86 582.49 306.9"/><polygon class="cls-5" points="591.15 381.81 459.9 495.8 450.95 485.5 590.24 364.5 591.15 381.81"/><polygon class="cls-5" points="597.54 505.11 503.23 584.82 494.4 574.4 596.66 487.94 597.54 505.11"/><polygon class="cls-5" points="603.42 617.96 528.59 679.34 519.92 668.76 602.54 601.02 603.42 617.96"/><polygon class="cls-5" points="734.69 481.51 591.09 380.89 590.25 365.25 591.05 364.15 742.54 470.31 734.69 481.51"/><polygon class="cls-5" points="596.63 487.05 708.53 563.24 700.8 574.56 597.48 504.19 596.63 487.05"/><polygon class="cls-5" points="685.41 671.2 603.36 617.1 602.57 601.57 603.17 600.62 692.91 659.82 685.41 671.2"/><polygon class="cls-5" points="607.73 783.27 582.18 296.43 595.88 295.76 621.93 793.23 607.73 783.27"/></g><g class="cls-3"><path class="cls-8" d="M-11.07,438.77A526.89,526.89,0,0,0-95.73,542.26a38.31,38.31,0,0,1,16.62,21.51,38.61,38.61,0,0,1-25.83,48.1,38.48,38.48,0,0,1-27-2c-66.73,148.79-53.29,290.15-52,302.59l-.43.1.44.12.1.44.43-.11c16.63,5.14,274.4,80.29,497.87-80.69,0,0,181.76-125.73,139.1-281-1,.24-1.93.91-3,1.21a38.83,38.83,0,0,1-48.4-25.95v0a38.76,38.76,0,0,1,17.36-44.43,315.26,315.26,0,0,0-34-39.56C226.29,205.83-11.07,438.77-11.07,438.77Zm-18.7,468.52a12.9,12.9,0,0,1,8.61-16A13,13,0,0,1-5.1,899.89a12.86,12.86,0,0,1-8.64,16L-14,916A12.9,12.9,0,0,1-29.77,907.29Zm272.16-81.74a22.51,22.51,0,1,1-28.09-15.12A22.52,22.52,0,0,1,242.39,825.55Zm-69.8-422.49a12.88,12.88,0,1,1-16.05-8.61,13,13,0,0,1,16.05,8.61Z"/><polygon class="cls-8" points="361.16 453.54 548.13 299.27 560.26 314 361.79 477.73 361.16 453.54"/><polygon class="cls-5" points="284.48 525.54 47.72 473.31 51.85 454.73 303.12 510.11 284.48 525.54"/><polygon class="cls-5" points="151.75 635.18 -15.93 595.85 -11.57 577.3 170.25 619.92 151.75 635.18"/><polygon class="cls-5" points="30.7 741.72 -100.27 708.97 -95.61 690.49 48.93 726.65 30.7 741.72"/><polygon class="cls-5" points="292.17 769.13 285.45 524.67 302.28 510.76 304.18 510.72 311.23 768.59 292.17 769.13"/><polygon class="cls-5" points="171.2 619.14 178.89 807.77 159.84 808.53 152.73 634.36 171.2 619.14"/><polygon class="cls-5" points="39.23 877.77 31.61 740.95 48.31 727.12 49.88 727.01 58.25 876.69 39.23 877.77"/><polygon class="cls-5" points="-151.25 877.83 372.63 444.51 384.77 459.25 -150.62 902.02 -151.25 877.83"/></g><g class="cls-12"><g class="cls-3"><path class="cls-4" d="M510.71,1044.88A368.62,368.62,0,0,1,500,1137.67a26.84,26.84,0,0,0-16.35,51C441.35,1294.37,363.89,1356.24,357,1361.59l0,.35-.29-.15-.25.19.05-.35c-10.63-5.87-173.4-98.67-201.14-288.91,0,0-25.12-152.2,73.48-206.19.24.72.52,1.43.83,2.13A27.06,27.06,0,0,0,280.06,850a223.05,223.05,0,0,1,36.34-2C512.38,812.78,510.71,1044.88,510.71,1044.88Zm-225.82,236.8a29.15,29.15,0,1,0-.11,0Zm-91.07-176.21a15.71,15.71,0,1,0,21.18,6.75,15.71,15.71,0,0,0-21.18-6.75l-.06,0Zm245.79-170a9,9,0,1,0,12,4.09l-.13-.26a9,9,0,0,0-12-3.84Z"/><polygon class="cls-5" points="323.76 938.73 464.84 1032.15 472.16 1021.07 322.44 921.89 323.76 938.73"/><polygon class="cls-5" points="333.15 1058.51 434.27 1123.56 441.47 1112.37 331.83 1041.84 333.15 1058.51"/><polygon class="cls-5" points="341.74 1168.18 421.72 1217.97 428.75 1206.7 340.46 1151.72 341.74 1168.18"/><polygon class="cls-5" points="197.81 1053.06 323.72 937.8 322.52 922.63 321.63 921.67 188.85 1043.25 197.81 1053.06"/><polygon class="cls-5" points="331.76 1040.97 233.4 1128.66 242.26 1138.58 333.08 1057.62 331.76 1040.97"/><polygon class="cls-5" points="269.35 1229.92 341.69 1167.34 340.53 1152.24 339.8 1151.42 260.66 1219.86 269.35 1229.92"/><polygon class="cls-5" points="358.49 1328.29 321.62 855.17 308.35 856.26 346.04 1339.7 358.49 1328.29"/></g><g class="cls-3"><path class="cls-6" d="M584.48,870.79a236.81,236.81,0,0,1,24.74,54.46,17.19,17.19,0,0,0,7.89,33.39c11.74,71.92-10.29,131.47-12.3,136.66l.14.19-.18-.07-.07.18-.14-.16c-7.79.27-127.71,3.17-205.79-92,0,0-64.07-75.19-27.83-137.4a12.57,12.57,0,0,0,1.18.89,17.32,17.32,0,0,0,21.53-26.77A142.54,142.54,0,0,1,412.88,827C508.7,742.93,584.48,870.79,584.48,870.79Zm-45.74,204.43a4.17,4.17,0,1,0,0,.18.43.43,0,0,1,0-.07Zm-108.17-66.56a7.12,7.12,0,1,1,0,.11ZM509.2,834.37a5.74,5.74,0,1,0,7.92-1.9,5.74,5.74,0,0,0-7.92,1.9Z"/><polygon class="cls-5" points="446.84 874.34 555.09 878.97 555.45 870.46 440.55 865.54 446.84 874.34"/><polygon class="cls-5" points="491.57 936.93 568.52 939.2 568.78 930.68 485.34 928.24 491.57 936.93"/><polygon class="cls-5" points="532.52 994.25 592.85 995.15 592.98 986.63 526.37 985.64 532.52 994.25"/><polygon class="cls-5" points="415.53 978.66 446.5 873.85 440.84 865.92 440.02 865.68 407.38 976.25 415.53 978.66"/><polygon class="cls-5" points="485.01 927.77 460.03 1008.38 468.17 1010.9 491.24 936.47 485.01 927.77"/><polygon class="cls-5" points="513.22 1052.04 532.22 993.81 526.57 985.93 525.91 985.7 505.11 1049.39 513.22 1052.04"/><polygon class="cls-5" points="594.62 1076.54 418.06 829.23 411.13 834.18 591.56 1086.93 594.62 1076.54"/></g><g class="cls-3"><path class="cls-7" d="M1405.3,1205.73a366.59,366.59,0,0,1-73.45,57.11,26.7,26.7,0,0,0-47.61,24c-104.54,43.75-202.53,32-211.12,30.79l-.21.28v-.32h-.31l.25-.25c-3.25-11.64-51-192,64.76-344.48,0,0,90.57-124.07,197.7-91.73q-.51,1-.93,2.1a27,27,0,0,0,48.4,22.78,215.67,215.67,0,0,1,26.87,24.3C1571.26,1045,1405.3,1205.73,1405.3,1205.73Zm-325.84,4.82a8.95,8.95,0,1,0-5.7-11.3v0a8.91,8.91,0,0,0,5.67,11.25ZM1141,1022.92a15.65,15.65,0,1,0,10,19.76v0A15.65,15.65,0,0,0,1141,1022.92Zm292.26,55.82a8.94,8.94,0,1,0,5.7,11.3v0a8.92,8.92,0,0,0-5.67-11.26Z"/><polygon class="cls-5" points="1105.42 1163.47 1200.35 1171.16 1210.26 1159.83 1210.38 1158.71 1106.5 1150.29 1105.42 1163.47"/><polygon class="cls-5" points="1097.82 1295.42 1408.01 939.07 1398 930.37 1081.01 1294.56 1097.82 1295.42"/></g><g class="cls-3"><path class="cls-8" d="M916.18,1283.34A298.48,298.48,0,0,1,868,1341.81a21.66,21.66,0,0,0-13.79-6.86,21.77,21.77,0,0,0-19.8,34.47c-75.32,53.5-155.36,61.63-162.42,62.26v.25l-.12-.23h-.25v-.25c-4.69-8.67-74.9-143.63-10.09-285.58,0,0,49.81-114.88,140.82-108.31,0,.6-.3,1.17-.35,1.8a22,22,0,0,0,19.76,24h0a22,22,0,0,0,22.78-14.55,178.76,178.76,0,0,1,25.73,14.51C1019.44,1125.73,916.18,1283.34,916.18,1283.34Zm-258.31,62.09a7.29,7.29,0,1,0-6.54-8c0,.06,0,.11,0,.17A7.31,7.31,0,0,0,657.87,1345.43Zm15.4-160.26a12.75,12.75,0,1,0,11.5,13.94A12.77,12.77,0,0,0,673.27,1185.17Zm242.49-7.83a7.29,7.29,0,1,0,6.56,8,7.34,7.34,0,0,0-6.56-8Z"/><polygon class="cls-8" points="866.9 1078.11 932 957.19 922.47 952.07 853.39 1080.43 866.9 1078.11"/><polygon class="cls-5" points="835.35 1128.67 890.5 1254.48 900.37 1250.14 841.87 1116.61 835.35 1128.67"/><polygon class="cls-5" points="789.06 1214.53 829.42 1303.38 839.25 1298.9 795.5 1202.57 789.06 1214.53"/><polygon class="cls-5" points="743.22 1293.56 775.87 1362.73 785.62 1358.1 749.58 1281.76 743.22 1293.56"/><polygon class="cls-5" points="699.13 1151.28 835.72 1128.03 841.6 1117.15 841.41 1116.09 697.33 1140.63 699.13 1151.28"/><polygon class="cls-5" points="795.83 1201.95 690.16 1218.49 691.83 1229.16 789.41 1213.89 795.83 1201.95"/><polygon class="cls-5" points="666.66 1303.83 743.54 1292.97 749.38 1282.16 749.27 1281.28 665.17 1293.14 666.66 1303.83"/><polygon class="cls-5" points="687.65 1409.69 870.65 1070.74 861.12 1065.63 674.14 1412.01 687.65 1409.69"/><path class="cls-4" d="M1068.8,817.59a402,402,0,0,1,89.34,49A29.27,29.27,0,0,0,1203,904c89.45,86.06,120.18,189.71,122.77,198.84l.34.19-.27.23.09.32-.33-.18c-10.3,8.33-170.86,134.71-374.47,84.67,0,0-164.09-37.08-178.18-158.86q1.25.07,2.49,0a29.51,29.51,0,0,0,1.84-58.56,242.42,242.42,0,0,1,12.85-37.55C835,720.67,1068.8,817.59,1068.8,817.59Zm146.6,325.35a44.95,44.95,0,1,0-.06.1ZM1000,1162.64a23.08,23.08,0,1,0-.06,0v.09Zm-70.9-318.11a9.8,9.8,0,1,0,9.07-10.47l-.31,0A9.83,9.83,0,0,0,929,844.64Z"/><polygon class="cls-5" points="884.82 962.93 1037.11 858.72 1028.91 846.77 867.26 957.36 884.82 962.93"/><polygon class="cls-5" points="1009.7 1002.6 1116.92 927.11 1108.58 915.25 992.32 997.09 1009.7 1002.6"/><polygon class="cls-5" points="1124.04 1038.92 1207.18 978.54 1198.67 966.81 1106.89 1033.46 1124.04 1038.92"/><polygon class="cls-5" points="948.66 1137.1 883.86 962.59 868.04 957.57 866.72 958.09 935.07 1142.14 948.66 1137.1"/><polygon class="cls-5" points="991.41 996.8 1039.65 1132.17 1053.31 1127.29 1008.77 1002.29 991.41 996.8"/><polygon class="cls-5" points="1156.72 1137.4 1123.17 1038.62 1107.43 1033.6 1106.31 1034.01 1142.99 1142.06 1156.72 1137.4"/><polygon class="cls-5" points="1292.69 1087.7 799.51 930.81 795.17 944.65 1299.11 1104.96 1292.69 1087.7"/><path class="cls-9" d="M590.22,1084.42a289.61,289.61,0,0,1-53.43-50,21,21,0,0,0-24.53-34c-46.92-75.85-49.85-153.47-50-160.28L462,840l.24-.07-.07-.24.23.15c8.66-4,143-63.31,275.74,7.81,0,0,107.61,55.07,95.71,142.32-.58-.15-1.14-.36-1.72-.46a21.21,21.21,0,0,0-11.74,40.23,171.57,171.57,0,0,1-15.59,23.89C735.7,1193.56,590.22,1084.42,590.22,1084.42Zm-44-252.67a7,7,0,1,0,8.07-5.82h0A7.05,7.05,0,0,0,546.23,831.75Zm153.45,24.68a12.3,12.3,0,1,0-14.1,10.22,12.3,12.3,0,0,0,14.1-10.22v0Zm-7.33,234.08a7,7,0,1,0-8.08,5.82A7,7,0,0,0,692.35,1090.51Z"/><polygon class="cls-5" points="744.19 1016.04 619.61 1061.41 623.19 1071.21 755.42 1023.05 744.19 1016.04"/><polygon class="cls-5" points="664.33 966.19 576.25 999.6 579.96 1009.36 675.44 973.09 664.33 966.19"/><polygon class="cls-5" points="591.22 920.52 522.6 947.72 526.43 957.42 602.2 927.37 591.22 920.52"/><polygon class="cls-5" points="730.79 883.42 744.79 1016.43 754.91 1022.76 755.94 1022.64 741.15 882.35 730.79 883.42"/><polygon class="cls-5" points="586.03 846.14 591.79 920.86 601.83 927.16 602.7 927.08 596.42 845.33 586.03 846.14"/><polygon class="cls-5" points="482.53 856.5 797.82 1053.59 803.33 1044.73 481.15 843.34 482.53 856.5"/></g><path class="cls-10" d="M-39.35,1344.74a184.31,184.31,0,0,1-43,19.62,13.4,13.4,0,0,0-5.84-7.61,13.56,13.56,0,0,0-18.69,4.29,13.59,13.59,0,0,0-1.86,9.59,223.32,223.32,0,0,1-108-9.53l-.19.08h0c-.25-6.12-2.63-100.9,72.49-162.72,0,0,59.34-50.7,108.51-22.13-.3.13-.5.57-.7.92a13.68,13.68,0,0,0,4.43,18.84,13.68,13.68,0,0,0,16.82-1.9,111,111,0,0,1,10.43,15.18C61.61,1284.7-39.35,1344.74-39.35,1344.74ZM-201,1308.89a4.54,4.54,0,0,0,6.2-1.69,4.54,4.54,0,0,0-1.45-6.06,4.55,4.55,0,0,0-6.3,1.31,4.56,4.56,0,0,0,1.31,6.3Zm52.46-85.58a8.13,8.13,0,0,0-11.22,2.45,8.12,8.12,0,0,0,2.46,11.22,8.13,8.13,0,0,0,11.22-2.45c.06-.1.12-.19.17-.29A8.11,8.11,0,0,0-148.56,1223.31Zm138,62a4.55,4.55,0,0,0-6.21,1.69,4.55,4.55,0,0,0,1.45,6.06,4.58,4.58,0,0,0,6.25-1.5,4.51,4.51,0,0,0-1.43-6.21Z"/><polygon class="cls-10" points="-10.8 1216.31 58.74 1166.39 54.8 1160.93 -19 1213.91 -10.8 1216.31"/><g class="cls-3"><path class="cls-8" d="M193.22,966.92a526.89,526.89,0,0,1,84.66,103.49,38.44,38.44,0,0,0,36.25,67.64c66.73,148.79,53.29,290.14,52,302.59l.43.1-.44.12-.1.43-.43-.1c-16.64,5.14-274.41,80.29-497.87-80.69,0,0-181.76-125.73-139.1-281,1,.25,1.92.92,3,1.22a38.83,38.83,0,0,0,48.4-26v0a38.77,38.77,0,0,0-17.37-44.44,316.83,316.83,0,0,1,34-39.55C-44.14,734,193.22,966.92,193.22,966.92Zm18.7,468.52a12.88,12.88,0,1,0-16,8.6l.28.08A12.91,12.91,0,0,0,211.92,1435.44ZM-60.24,1353.7a22.52,22.52,0,0,0,15.09,28,22.51,22.51,0,0,0,28-15.09,22.51,22.51,0,0,0-15-28.06A22.56,22.56,0,0,0-60.24,1353.7ZM9.56,931.21a12.88,12.88,0,1,0,16-8.61,12.93,12.93,0,0,0-16,8.61Z"/><polygon class="cls-5" points="-102.33 1053.69 134.43 1001.46 130.3 982.88 -120.97 1038.25 -102.33 1053.69"/><polygon class="cls-5" points="30.4 1163.33 198.08 1124 193.72 1105.45 11.9 1148.07 30.4 1163.33"/><polygon class="cls-5" points="151.45 1269.86 282.42 1237.12 277.76 1218.64 133.22 1254.8 151.45 1269.86"/><polygon class="cls-5" points="10.95 1147.29 3.26 1335.91 22.31 1336.68 29.41 1162.5 10.95 1147.29"/><polygon class="cls-5" points="142.92 1405.92 150.54 1269.1 133.84 1255.26 132.27 1255.16 123.9 1404.84 142.92 1405.92"/><polygon class="cls-5" points="333.39 1405.98 -190.48 972.66 -202.62 987.39 332.77 1430.17 333.39 1405.98"/></g></g></g></g></svg>